solid OpenSCAD_Model
  facet normal -7.3651e-008 0.309018 -0.951056
    outer loop
      vertex -220 -97.6168 219.251
      vertex -74.8331 -83.1964 223.936
      vertex -73.3611 -96.5241 219.606
    endloop
  endfacet
  facet normal 7.99038e-008 0.309016 -0.951057
    outer loop
      vertex -74.8331 -83.1964 223.936
      vertex -220 -97.6168 219.251
      vertex -75 -81.6849 224.427
    endloop
  endfacet
  facet normal 0 0.309009 -0.951059
    outer loop
      vertex -220 -97.6168 219.251
      vertex -73.3611 -96.5241 219.606
      vertex -72.988 -97.6168 219.251
    endloop
  endfacet
  facet normal 1.01739e-007 0.309017 -0.951056
    outer loop
      vertex -220 -49.8988 234.755
      vertex -73.5295 -68.3706 228.754
      vertex -75 -81.6849 224.427
    endloop
  endfacet
  facet normal 2.07578e-008 0.309017 -0.951057
    outer loop
      vertex -220 -49.8988 234.755
      vertex -75 -81.6849 224.427
      vertex -220 -97.6168 219.251
    endloop
  endfacet
  facet normal -6.98334e-007 0.309011 -0.951058
    outer loop
      vertex -73.5295 -68.3706 228.754
      vertex -220 -49.8988 234.755
      vertex -73.3611 -66.8457 229.249
    endloop
  endfacet
  facet normal 6.60568e-008 0.309017 -0.951056
    outer loop
      vertex -73.3611 -66.8457 229.249
      vertex -220 -49.8988 234.755
      vertex -69.018 -54.1257 233.382
    endloop
  endfacet
  facet normal 1.20202e-007 0.309019 -0.951056
    outer loop
      vertex -69.018 -54.1257 233.382
      vertex -220 -49.8988 234.755
      vertex -68.5159 -52.655 233.86
    endloop
  endfacet
  facet normal 0 0.309013 -0.951058
    outer loop
      vertex -68.5159 -52.655 233.86
      vertex -220 -49.8988 234.755
      vertex -66.8437 -49.8988 234.755
    endloop
  endfacet
  facet normal -2.07578e-008 0.309017 -0.951057
    outer loop
      vertex 220 -97.6168 219.251
      vertex 75 -81.6849 224.427
      vertex 220 -49.8988 234.755
    endloop
  endfacet
  facet normal -7.99038e-008 0.309016 -0.951057
    outer loop
      vertex 220 -97.6168 219.251
      vertex 74.8331 -83.1964 223.936
      vertex 75 -81.6849 224.427
    endloop
  endfacet
  facet normal 7.3651e-008 0.309018 -0.951056
    outer loop
      vertex 220 -97.6168 219.251
      vertex 73.3611 -96.5241 219.606
      vertex 74.8331 -83.1964 223.936
    endloop
  endfacet
  facet normal 0 0.309009 -0.951059
    outer loop
      vertex 73.3611 -96.5241 219.606
      vertex 220 -97.6168 219.251
      vertex 72.988 -97.6168 219.251
    endloop
  endfacet
  facet normal -1.01739e-007 0.309017 -0.951056
    outer loop
      vertex 73.5295 -68.3706 228.754
      vertex 220 -49.8988 234.755
      vertex 75 -81.6849 224.427
    endloop
  endfacet
  facet normal 6.98334e-007 0.309011 -0.951058
    outer loop
      vertex 73.3611 -66.8457 229.249
      vertex 220 -49.8988 234.755
      vertex 73.5295 -68.3706 228.754
    endloop
  endfacet
  facet normal -6.60568e-008 0.309017 -0.951056
    outer loop
      vertex 69.018 -54.1257 233.382
      vertex 220 -49.8988 234.755
      vertex 73.3611 -66.8457 229.249
    endloop
  endfacet
  facet normal -1.20202e-007 0.309019 -0.951056
    outer loop
      vertex 68.5159 -52.655 233.86
      vertex 220 -49.8988 234.755
      vertex 69.018 -54.1257 233.382
    endloop
  endfacet
  facet normal 0 0.309013 -0.951058
    outer loop
      vertex 220 -49.8988 234.755
      vertex 68.5159 -52.655 233.86
      vertex 66.8437 -49.8988 234.755
    endloop
  endfacet
  facet normal 0 -0.309017 -0.951057
    outer loop
      vertex -220 49.8988 234.755
      vertex 220 97.6168 219.251
      vertex 220 49.8988 234.755
    endloop
  endfacet
  facet normal -0 -0.309017 -0.951057
    outer loop
      vertex 220 97.6168 219.251
      vertex -220 49.8988 234.755
      vertex -220 97.6168 219.251
    endloop
  endfacet
  facet normal 0 -0.5 -0.866025
    outer loop
      vertex -220 97.6168 219.251
      vertex 220 126.63 202.5
      vertex 220 97.6168 219.251
    endloop
  endfacet
  facet normal -0 -0.5 -0.866025
    outer loop
      vertex 220 126.63 202.5
      vertex -220 97.6168 219.251
      vertex -220 126.63 202.5
    endloop
  endfacet
  facet normal 0 -0.104529 -0.994522
    outer loop
      vertex -220 0 240
      vertex 220 49.8988 234.755
      vertex 220 0 240
    endloop
  endfacet
  facet normal -0 -0.104529 -0.994522
    outer loop
      vertex 220 49.8988 234.755
      vertex -220 0 240
      vertex -220 49.8988 234.755
    endloop
  endfacet
  facet normal -1.11221e-007 0.500009 -0.86602
    outer loop
      vertex -220 -141.068 194.164
      vertex -38.9566 -139.082 195.311
      vertex -37.5 -140.012 194.774
    endloop
  endfacet
  facet normal 0 0.499994 -0.866029
    outer loop
      vertex -220 -141.068 194.164
      vertex -37.5 -140.012 194.774
      vertex -34.8024 -141.068 194.164
    endloop
  endfacet
  facet normal 1.96193e-008 0.5 -0.866026
    outer loop
      vertex -38.9566 -139.082 195.311
      vertex -220 -141.068 194.164
      vertex -50.1848 -131.908 199.453
    endloop
  endfacet
  facet normal 2.79929e-008 0.5 -0.866026
    outer loop
      vertex -220 -141.068 194.164
      vertex -60.6763 -121.661 205.369
      vertex -50.1848 -131.908 199.453
    endloop
  endfacet
  facet normal -1.39809e-009 0.5 -0.866026
    outer loop
      vertex -220 -141.068 194.164
      vertex -68.5159 -109.72 212.263
      vertex -60.6763 -121.661 205.369
    endloop
  endfacet
  facet normal -2.11652e-007 0.500001 -0.866025
    outer loop
      vertex -220 -141.068 194.164
      vertex -72.8713 -97.9326 219.069
      vertex -68.5159 -109.72 212.263
    endloop
  endfacet
  facet normal 1.45454e-006 0.499996 -0.866028
    outer loop
      vertex -220 -141.068 194.164
      vertex -72.988 -97.6168 219.251
      vertex -72.8713 -97.9326 219.069
    endloop
  endfacet
  facet normal 0 0.5 -0.866025
    outer loop
      vertex -72.988 -97.6168 219.251
      vertex -220 -141.068 194.164
      vertex -220 -97.6168 219.251
    endloop
  endfacet
  facet normal 0 0.5 -0.866025
    outer loop
      vertex 220 -141.068 194.164
      vertex 72.988 -97.6168 219.251
      vertex 220 -97.6168 219.251
    endloop
  endfacet
  facet normal -1.45454e-006 0.499996 -0.866028
    outer loop
      vertex 220 -141.068 194.164
      vertex 72.8713 -97.9326 219.069
      vertex 72.988 -97.6168 219.251
    endloop
  endfacet
  facet normal 2.11652e-007 0.500001 -0.866025
    outer loop
      vertex 220 -141.068 194.164
      vertex 68.5159 -109.72 212.263
      vertex 72.8713 -97.9326 219.069
    endloop
  endfacet
  facet normal 1.39809e-009 0.5 -0.866026
    outer loop
      vertex 220 -141.068 194.164
      vertex 60.6763 -121.661 205.369
      vertex 68.5159 -109.72 212.263
    endloop
  endfacet
  facet normal -2.79929e-008 0.5 -0.866026
    outer loop
      vertex 220 -141.068 194.164
      vertex 50.1848 -131.908 199.453
      vertex 60.6763 -121.661 205.369
    endloop
  endfacet
  facet normal -1.96193e-008 0.5 -0.866026
    outer loop
      vertex 220 -141.068 194.164
      vertex 38.9566 -139.082 195.311
      vertex 50.1848 -131.908 199.453
    endloop
  endfacet
  facet normal 1.11221e-007 0.500009 -0.86602
    outer loop
      vertex 220 -141.068 194.164
      vertex 37.5 -140.012 194.774
      vertex 38.9566 -139.082 195.311
    endloop
  endfacet
  facet normal 0 0.499994 -0.866029
    outer loop
      vertex 37.5 -140.012 194.774
      vertex 220 -141.068 194.164
      vertex 34.8024 -141.068 194.164
    endloop
  endfacet
  facet normal 0 0.104529 -0.994522
    outer loop
      vertex 66.8437 -49.8988 234.755
      vertex 220 0 240
      vertex 220 -49.8988 234.755
    endloop
  endfacet
  facet normal -2.03441e-007 0.104529 -0.994522
    outer loop
      vertex 60.6763 -38.9497 235.906
      vertex 220 0 240
      vertex 66.8437 -49.8988 234.755
    endloop
  endfacet
  facet normal -1.97539e-008 0.104528 -0.994522
    outer loop
      vertex 50.1848 -27.0068 237.161
      vertex 220 0 240
      vertex 60.6763 -38.9497 235.906
    endloop
  endfacet
  facet normal 1.46055e-007 0.104527 -0.994522
    outer loop
      vertex 48.7437 -25.9337 237.274
      vertex 220 0 240
      vertex 50.1848 -27.0068 237.161
    endloop
  endfacet
  facet normal 1.31343e-010 0.104528 -0.994522
    outer loop
      vertex 37.5 -17.5607 238.154
      vertex 220 0 240
      vertex 48.7437 -25.9337 237.274
    endloop
  endfacet
  facet normal 3.73096e-008 0.104528 -0.994522
    outer loop
      vertex 35.8196 -16.7939 238.235
      vertex 220 0 240
      vertex 37.5 -17.5607 238.154
    endloop
  endfacet
  facet normal 1.05212e-007 0.104527 -0.994522
    outer loop
      vertex 23.1763 -11.0241 238.841
      vertex 220 0 240
      vertex 35.8196 -16.7939 238.235
    endloop
  endfacet
  facet normal 2.11224e-008 0.104529 -0.994522
    outer loop
      vertex 9.69298 -8.08662 239.15
      vertex 220 0 240
      vertex 23.1763 -11.0241 238.841
    endloop
  endfacet
  facet normal -8.74609e-007 0.104552 -0.994519
    outer loop
      vertex 7.83963 -7.68284 239.193
      vertex 220 0 240
      vertex 9.69298 -8.08662 239.15
    endloop
  endfacet
  facet normal 0 0.104528 -0.994522
    outer loop
      vertex -7.83963 -7.68284 239.193
      vertex 220 0 240
      vertex 7.83963 -7.68284 239.193
    endloop
  endfacet
  facet normal -2.11224e-008 0.104529 -0.994522
    outer loop
      vertex -220 0 240
      vertex -9.69298 -8.08662 239.15
      vertex -23.1763 -11.0241 238.841
    endloop
  endfacet
  facet normal -1.46055e-007 0.104527 -0.994522
    outer loop
      vertex -220 0 240
      vertex -48.7437 -25.9337 237.274
      vertex -50.1848 -27.0068 237.161
    endloop
  endfacet
  facet normal 0 0.104529 -0.994522
    outer loop
      vertex -220 0 240
      vertex -66.8437 -49.8988 234.755
      vertex -220 -49.8988 234.755
    endloop
  endfacet
  facet normal 2.03441e-007 0.104529 -0.994522
    outer loop
      vertex -66.8437 -49.8988 234.755
      vertex -220 0 240
      vertex -60.6763 -38.9497 235.906
    endloop
  endfacet
  facet normal 1.97539e-008 0.104528 -0.994522
    outer loop
      vertex -60.6763 -38.9497 235.906
      vertex -220 0 240
      vertex -50.1848 -27.0068 237.161
    endloop
  endfacet
  facet normal -1.31343e-010 0.104528 -0.994522
    outer loop
      vertex -48.7437 -25.9337 237.274
      vertex -220 0 240
      vertex -37.5 -17.5607 238.154
    endloop
  endfacet
  facet normal -3.73096e-008 0.104528 -0.994522
    outer loop
      vertex -37.5 -17.5607 238.154
      vertex -220 0 240
      vertex -35.8196 -16.7939 238.235
    endloop
  endfacet
  facet normal -1.05212e-007 0.104527 -0.994522
    outer loop
      vertex -35.8196 -16.7939 238.235
      vertex -220 0 240
      vertex -23.1763 -11.0241 238.841
    endloop
  endfacet
  facet normal 0 0.104528 -0.994522
    outer loop
      vertex -7.83963 -7.68284 239.193
      vertex -220 0 240
      vertex 220 0 240
    endloop
  endfacet
  facet normal 8.74609e-007 0.104552 -0.994519
    outer loop
      vertex -9.69298 -8.08662 239.15
      vertex -220 0 240
      vertex -7.83963 -7.68284 239.193
    endloop
  endfacet
  facet normal 0 0.809017 -0.587785
    outer loop
      vertex 220 -207.846 120
      vertex -220 -178.355 160.591
      vertex 220 -178.355 160.591
    endloop
  endfacet
  facet normal 0 0.809017 -0.587785
    outer loop
      vertex -220 -178.355 160.591
      vertex 220 -207.846 120
      vertex -220 -207.846 120
    endloop
  endfacet
  facet normal 0 0.913545 -0.406737
    outer loop
      vertex 220 -211.185 112.5
      vertex -220 -207.846 120
      vertex 220 -207.846 120
    endloop
  endfacet
  facet normal 0 0.913545 -0.406737
    outer loop
      vertex -220 -207.846 120
      vertex 220 -211.185 112.5
      vertex -220 -211.185 112.5
    endloop
  endfacet
  facet normal 0 0.669131 -0.743145
    outer loop
      vertex 220 -178.355 160.591
      vertex 34.8024 -141.068 194.164
      vertex 220 -141.068 194.164
    endloop
  endfacet
  facet normal 3.05913e-008 0.669131 -0.743145
    outer loop
      vertex 220 -178.355 160.591
      vertex 24.8732 -144.612 190.974
      vertex 34.8024 -141.068 194.164
    endloop
  endfacet
  facet normal -7.66701e-007 0.669128 -0.743147
    outer loop
      vertex 220 -178.355 160.591
      vertex 23.1763 -145.217 190.428
      vertex 24.8732 -144.612 190.974
    endloop
  endfacet
  facet normal 1.65989e-006 0.669136 -0.74314
    outer loop
      vertex 220 -178.355 160.591
      vertex 21.3475 -145.529 190.148
      vertex 23.1763 -145.217 190.428
    endloop
  endfacet
  facet normal -1.17791e-007 0.66913 -0.743145
    outer loop
      vertex 220 -178.355 160.591
      vertex 7.83963 -147.83 188.076
      vertex 21.3475 -145.529 190.148
    endloop
  endfacet
  facet normal 0 0.669131 -0.743145
    outer loop
      vertex 220 -178.355 160.591
      vertex -7.83963 -147.83 188.076
      vertex 7.83963 -147.83 188.076
    endloop
  endfacet
  facet normal 1.17791e-007 0.66913 -0.743145
    outer loop
      vertex -220 -178.355 160.591
      vertex -21.3475 -145.529 190.148
      vertex -7.83963 -147.83 188.076
    endloop
  endfacet
  facet normal 7.66701e-007 0.669128 -0.743147
    outer loop
      vertex -220 -178.355 160.591
      vertex -24.8732 -144.612 190.974
      vertex -23.1763 -145.217 190.428
    endloop
  endfacet
  facet normal 0 0.669131 -0.743145
    outer loop
      vertex -220 -178.355 160.591
      vertex -7.83963 -147.83 188.076
      vertex 220 -178.355 160.591
    endloop
  endfacet
  facet normal -1.65989e-006 0.669136 -0.74314
    outer loop
      vertex -21.3475 -145.529 190.148
      vertex -220 -178.355 160.591
      vertex -23.1763 -145.217 190.428
    endloop
  endfacet
  facet normal -3.05913e-008 0.669131 -0.743145
    outer loop
      vertex -24.8732 -144.612 190.974
      vertex -220 -178.355 160.591
      vertex -34.8024 -141.068 194.164
    endloop
  endfacet
  facet normal 0 0.669131 -0.743145
    outer loop
      vertex -34.8024 -141.068 194.164
      vertex -220 -178.355 160.591
      vertex -220 -141.068 194.164
    endloop
  endfacet
  facet normal 0.994522 0.0982265 0.0357516
    outer loop
      vertex 73.3611 -66.8457 229.249
      vertex 73.5974 -60.4765 205.176
      vertex 73.3611 -58.3369 205.871
    endloop
  endfacet
  facet normal 0.994522 0.0982232 0.0357507
    outer loop
      vertex 73.5974 -60.4765 205.176
      vertex 73.3611 -66.8457 229.249
      vertex 73.5295 -68.3706 228.754
    endloop
  endfacet
  facet normal -0.207914 0.919158 0.334546
    outer loop
      vertex -7.83963 1.16716 214.877
      vertex -9.69298 -8.08662 239.15
      vertex -7.83963 -7.68284 239.193
    endloop
  endfacet
  facet normal -0.20791 0.919158 0.334546
    outer loop
      vertex -9.69298 -8.08662 239.15
      vertex -7.83963 1.16716 214.877
      vertex -10.3502 0.576672 214.939
    endloop
  endfacet
  facet normal 0.994522 0.0982243 0.035751
    outer loop
      vertex 73.5295 -68.3706 228.754
      vertex 75 -73.1761 201.05
      vertex 73.5974 -60.4765 205.176
    endloop
  endfacet
  facet normal 0.994522 0.0982249 0.0357509
    outer loop
      vertex 75 -73.1761 201.05
      vertex 73.5295 -68.3706 228.754
      vertex 75 -81.6849 224.427
    endloop
  endfacet
  facet normal 0.866025 -0.469846 -0.17101
    outer loop
      vertex 60.6763 -121.661 205.369
      vertex 68.5159 -101.086 188.539
      vertex 68.5159 -109.72 212.263
    endloop
  endfacet
  facet normal 0.866025 -0.469846 -0.17101
    outer loop
      vertex 68.5159 -101.086 188.539
      vertex 60.6763 -121.661 205.369
      vertex 60.6763 -113.026 181.645
    endloop
  endfacet
  facet normal 0 0.939693 0.34202
    outer loop
      vertex 7.83963 1.16716 214.877
      vertex -7.83963 -7.68284 239.193
      vertex 7.83963 -7.68284 239.193
    endloop
  endfacet
  facet normal 0 0.939693 0.34202
    outer loop
      vertex -7.83963 -7.68284 239.193
      vertex 7.83963 1.16716 214.877
      vertex -7.83963 1.16716 214.877
    endloop
  endfacet
  facet normal -0.951057 -0.290381 -0.10569
    outer loop
      vertex -68.5159 -109.72 212.263
      vertex -72.6665 -89.852 195.025
      vertex -68.5159 -101.086 188.539
    endloop
  endfacet
  facet normal -0.951056 -0.290381 -0.10569
    outer loop
      vertex -72.6665 -89.852 195.025
      vertex -68.5159 -109.72 212.263
      vertex -72.8713 -97.9326 219.069
    endloop
  endfacet
  facet normal -0.994522 -0.0982245 -0.0357508
    outer loop
      vertex -73.4237 -87.4484 196.412
      vertex -74.8331 -83.1964 223.936
      vertex -74.7652 -75.3023 200.359
    endloop
  endfacet
  facet normal -0.994522 -0.0982243 -0.0357507
    outer loop
      vertex -73.3611 -96.5241 219.606
      vertex -73.4237 -87.4484 196.412
      vertex -73.3611 -87.9723 196.11
    endloop
  endfacet
  facet normal -0.994522 -0.0982245 -0.0357508
    outer loop
      vertex -73.4237 -87.4484 196.412
      vertex -73.3611 -96.5241 219.606
      vertex -74.8331 -83.1964 223.936
    endloop
  endfacet
  facet normal 0.951057 0.290381 0.10569
    outer loop
      vertex 69.018 -54.1257 233.382
      vertex 73.3611 -58.3369 205.871
      vertex 69.2188 -46.2047 209.813
    endloop
  endfacet
  facet normal 0.951057 0.290381 0.10569
    outer loop
      vertex 73.3611 -58.3369 205.871
      vertex 69.018 -54.1257 233.382
      vertex 73.3611 -66.8457 229.249
    endloop
  endfacet
  facet normal 0.951057 0.290379 0.105689
    outer loop
      vertex 68.5159 -52.655 233.86
      vertex 68.7053 -44.701 210.302
      vertex 68.5159 -44.1034 210.365
    endloop
  endfacet
  facet normal 0.951056 0.290382 0.10569
    outer loop
      vertex 68.5159 -52.655 233.86
      vertex 69.2188 -46.2047 209.813
      vertex 68.7053 -44.701 210.302
    endloop
  endfacet
  facet normal 0.951056 0.290383 0.10569
    outer loop
      vertex 69.2188 -46.2047 209.813
      vertex 68.5159 -52.655 233.86
      vertex 69.018 -54.1257 233.382
    endloop
  endfacet
  facet normal -0.994522 -0.0982259 -0.0357513
    outer loop
      vertex -74.7652 -75.3023 200.359
      vertex -75 -81.6849 224.427
      vertex -75 -73.1761 201.05
    endloop
  endfacet
  facet normal -0.994522 -0.0982268 -0.0357515
    outer loop
      vertex -75 -81.6849 224.427
      vertex -74.7652 -75.3023 200.359
      vertex -74.8331 -83.1964 223.936
    endloop
  endfacet
  facet normal -0.951056 -0.290382 -0.10569
    outer loop
      vertex -72.8713 -97.9326 219.069
      vertex -73.3611 -87.9723 196.11
      vertex -72.6665 -89.852 195.025
    endloop
  endfacet
  facet normal -0.951057 -0.29038 -0.10569
    outer loop
      vertex -73.3611 -87.9723 196.11
      vertex -72.8713 -97.9326 219.069
      vertex -73.3611 -96.5241 219.606
    endloop
  endfacet
  facet normal -0.951057 -0.290381 -0.105687
    outer loop
      vertex -73.3611 -96.5241 219.606
      vertex -72.8713 -97.9326 219.069
      vertex -72.988 -97.6168 219.251
    endloop
  endfacet
  facet normal 0.207912 0.919158 0.334546
    outer loop
      vertex 23.1763 -11.0241 238.841
      vertex 23.1763 -2.26015 214.762
      vertex 12.8021 0 215
    endloop
  endfacet
  facet normal 0.207912 0.919158 0.334546
    outer loop
      vertex 12.8021 0 215
      vertex 9.69298 -8.08662 239.15
      vertex 23.1763 -11.0241 238.841
    endloop
  endfacet
  facet normal 0.207912 0.919158 0.334546
    outer loop
      vertex 9.69298 -8.08662 239.15
      vertex 12.8021 0 215
      vertex 10.3502 0.576672 214.939
    endloop
  endfacet
  facet normal 0.20791 0.919158 0.334546
    outer loop
      vertex 7.83963 1.16716 214.877
      vertex 9.69298 -8.08662 239.15
      vertex 10.3502 0.576672 214.939
    endloop
  endfacet
  facet normal 0.207914 0.919158 0.334546
    outer loop
      vertex 9.69298 -8.08662 239.15
      vertex 7.83963 1.16716 214.877
      vertex 7.83963 -7.68284 239.193
    endloop
  endfacet
  facet normal 0.743145 0.628777 0.228856
    outer loop
      vertex 50.1848 -27.0068 237.161
      vertex 60.6763 -30.1857 211.827
      vertex 50.1848 -18.2429 213.083
    endloop
  endfacet
  facet normal 0.743145 0.628777 0.228856
    outer loop
      vertex 60.6763 -30.1857 211.827
      vertex 50.1848 -27.0068 237.161
      vertex 60.6763 -38.9497 235.906
    endloop
  endfacet
  facet normal -0.951057 0.290379 0.105689
    outer loop
      vertex -68.7053 -44.701 210.302
      vertex -68.5159 -52.655 233.86
      vertex -68.5159 -44.1034 210.365
    endloop
  endfacet
  facet normal -0.951056 0.290382 0.10569
    outer loop
      vertex -69.2188 -46.2047 209.813
      vertex -68.5159 -52.655 233.86
      vertex -68.7053 -44.701 210.302
    endloop
  endfacet
  facet normal -0.951056 0.290383 0.10569
    outer loop
      vertex -68.5159 -52.655 233.86
      vertex -69.2188 -46.2047 209.813
      vertex -69.018 -54.1257 233.382
    endloop
  endfacet
  facet normal 0.207908 -0.919159 -0.334546
    outer loop
      vertex 21.3475 -145.529 190.148
      vertex 23.1763 -136.046 165.23
      vertex 23.1763 -145.217 190.428
    endloop
  endfacet
  facet normal 0.20791 -0.919158 -0.334546
    outer loop
      vertex 23.1763 -136.046 165.23
      vertex 21.3475 -145.529 190.148
      vertex 20.6605 -136.474 164.844
    endloop
  endfacet
  facet normal -0.587785 0.760227 0.2767
    outer loop
      vertex -37.5 -8.79671 214.075
      vertex -48.7437 -25.9337 237.274
      vertex -37.5 -17.5607 238.154
    endloop
  endfacet
  facet normal -0.587785 0.760227 0.2767
    outer loop
      vertex -48.7437 -25.9337 237.274
      vertex -37.5 -8.79671 214.075
      vertex -48.1999 -16.7647 213.238
    endloop
  endfacet
  facet normal 0.951056 -0.290381 -0.10569
    outer loop
      vertex 68.5159 -109.72 212.263
      vertex 72.6665 -89.852 195.025
      vertex 72.8713 -97.9326 219.069
    endloop
  endfacet
  facet normal 0.951057 -0.290381 -0.10569
    outer loop
      vertex 72.6665 -89.852 195.025
      vertex 68.5159 -109.72 212.263
      vertex 68.5159 -101.086 188.539
    endloop
  endfacet
  facet normal 0.587785 0.760227 0.2767
    outer loop
      vertex 48.7437 -25.9337 237.274
      vertex 37.5 -8.79671 214.075
      vertex 37.5 -17.5607 238.154
    endloop
  endfacet
  facet normal 0.587785 0.760227 0.2767
    outer loop
      vertex 37.5 -8.79671 214.075
      vertex 48.7437 -25.9337 237.274
      vertex 48.1999 -16.7647 213.238
    endloop
  endfacet
  facet normal 0.587785 0.760227 0.2767
    outer loop
      vertex 50.1848 -27.0068 237.161
      vertex 48.1999 -16.7647 213.238
      vertex 48.7437 -25.9337 237.274
    endloop
  endfacet
  facet normal 0.587786 0.760227 0.2767
    outer loop
      vertex 48.1999 -16.7647 213.238
      vertex 50.1848 -27.0068 237.161
      vertex 50.1848 -18.2429 213.083
    endloop
  endfacet
  facet normal -0.207912 0.919158 0.334546
    outer loop
      vertex -9.69298 -8.08662 239.15
      vertex -12.8021 0 215
      vertex -23.1763 -11.0241 238.841
    endloop
  endfacet
  facet normal -0.207912 0.919158 0.334546
    outer loop
      vertex -12.8021 0 215
      vertex -9.69298 -8.08662 239.15
      vertex -10.3502 0.576672 214.939
    endloop
  endfacet
  facet normal -0.207912 0.919158 0.334546
    outer loop
      vertex -23.1763 -11.0241 238.841
      vertex -12.8021 0 215
      vertex -23.1763 -2.26015 214.762
    endloop
  endfacet
  facet normal 0 -0.939693 -0.34202
    outer loop
      vertex -7.83963 -138.659 162.877
      vertex 7.83963 -147.83 188.076
      vertex -7.83963 -147.83 188.076
    endloop
  endfacet
  facet normal 0 -0.939693 -0.34202
    outer loop
      vertex 7.83963 -147.83 188.076
      vertex -7.83963 -138.659 162.877
      vertex 7.83963 -138.659 162.877
    endloop
  endfacet
  facet normal -0.743145 -0.628777 -0.228856
    outer loop
      vertex -50.1848 -131.908 199.453
      vertex -60.6763 -113.026 181.645
      vertex -50.1848 -123.273 175.729
    endloop
  endfacet
  facet normal -0.743145 -0.628777 -0.228856
    outer loop
      vertex -60.6763 -113.026 181.645
      vertex -50.1848 -131.908 199.453
      vertex -60.6763 -121.661 205.369
    endloop
  endfacet
  facet normal -0.866025 0.469846 0.17101
    outer loop
      vertex -68.5159 -44.1034 210.365
      vertex -60.6763 -38.9497 235.906
      vertex -60.6763 -30.1857 211.827
    endloop
  endfacet
  facet normal -0.866025 0.469847 0.17101
    outer loop
      vertex -68.5159 -44.1034 210.365
      vertex -66.8437 -49.8988 234.755
      vertex -60.6763 -38.9497 235.906
    endloop
  endfacet
  facet normal -0.866026 0.469846 0.17101
    outer loop
      vertex -66.8437 -49.8988 234.755
      vertex -68.5159 -44.1034 210.365
      vertex -68.5159 -52.655 233.86
    endloop
  endfacet
  facet normal -0.406737 0.858452 0.312451
    outer loop
      vertex -35.2063 -7.74998 214.185
      vertex -37.5 -17.5607 238.154
      vertex -35.8196 -16.7939 238.235
    endloop
  endfacet
  facet normal -0.406737 0.858452 0.312451
    outer loop
      vertex -37.5 -17.5607 238.154
      vertex -35.2063 -7.74998 214.185
      vertex -37.5 -8.79671 214.075
    endloop
  endfacet
  facet normal 0.866025 0.469846 0.17101
    outer loop
      vertex 60.6763 -38.9497 235.906
      vertex 68.5159 -44.1034 210.365
      vertex 60.6763 -30.1857 211.827
    endloop
  endfacet
  facet normal 0.866025 0.469847 0.17101
    outer loop
      vertex 66.8437 -49.8988 234.755
      vertex 68.5159 -44.1034 210.365
      vertex 60.6763 -38.9497 235.906
    endloop
  endfacet
  facet normal 0.866026 0.469846 0.17101
    outer loop
      vertex 68.5159 -44.1034 210.365
      vertex 66.8437 -49.8988 234.755
      vertex 68.5159 -52.655 233.86
    endloop
  endfacet
  facet normal 0.406737 0.858452 0.312451
    outer loop
      vertex 37.5 -17.5607 238.154
      vertex 35.2063 -7.74998 214.185
      vertex 35.8196 -16.7939 238.235
    endloop
  endfacet
  facet normal 0.406737 0.858452 0.312451
    outer loop
      vertex 35.2063 -7.74998 214.185
      vertex 37.5 -17.5607 238.154
      vertex 37.5 -8.79671 214.075
    endloop
  endfacet
  facet normal 0.406736 0.858452 0.312451
    outer loop
      vertex 35.8196 -16.7939 238.235
      vertex 23.1763 -2.26015 214.762
      vertex 23.1763 -11.0241 238.841
    endloop
  endfacet
  facet normal 0.406737 0.858452 0.312451
    outer loop
      vertex 23.1763 -2.26015 214.762
      vertex 35.8196 -16.7939 238.235
      vertex 35.2063 -7.74998 214.185
    endloop
  endfacet
  facet normal -0.406736 0.858452 0.312451
    outer loop
      vertex -23.1763 -2.26015 214.762
      vertex -35.8196 -16.7939 238.235
      vertex -23.1763 -11.0241 238.841
    endloop
  endfacet
  facet normal -0.406737 0.858452 0.312451
    outer loop
      vertex -35.8196 -16.7939 238.235
      vertex -23.1763 -2.26015 214.762
      vertex -35.2063 -7.74998 214.185
    endloop
  endfacet
  facet normal -0.207908 -0.919159 -0.334546
    outer loop
      vertex -23.1763 -136.046 165.23
      vertex -21.3475 -145.529 190.148
      vertex -23.1763 -145.217 190.428
    endloop
  endfacet
  facet normal -0.20791 -0.919158 -0.334546
    outer loop
      vertex -21.3475 -145.529 190.148
      vertex -23.1763 -136.046 165.23
      vertex -20.6605 -136.474 164.844
    endloop
  endfacet
  facet normal -0.587785 -0.760227 -0.2767
    outer loop
      vertex -50.1848 -123.273 175.729
      vertex -38.9566 -139.082 195.311
      vertex -50.1848 -131.908 199.453
    endloop
  endfacet
  facet normal -0.587785 -0.760227 -0.2767
    outer loop
      vertex -45.3314 -126.374 173.939
      vertex -38.9566 -139.082 195.311
      vertex -50.1848 -123.273 175.729
    endloop
  endfacet
  facet normal -0.587785 -0.760227 -0.2767
    outer loop
      vertex -38.9566 -139.082 195.311
      vertex -45.3314 -126.374 173.939
      vertex -39.5092 -129.764 170.886
    endloop
  endfacet
  facet normal -0.866025 -0.469846 -0.17101
    outer loop
      vertex -60.6763 -121.661 205.369
      vertex -68.5159 -101.086 188.539
      vertex -60.6763 -113.026 181.645
    endloop
  endfacet
  facet normal -0.866025 -0.469846 -0.17101
    outer loop
      vertex -68.5159 -101.086 188.539
      vertex -60.6763 -121.661 205.369
      vertex -68.5159 -109.72 212.263
    endloop
  endfacet
  facet normal -0.743145 0.628777 0.228856
    outer loop
      vertex -60.6763 -30.1857 211.827
      vertex -50.1848 -27.0068 237.161
      vertex -50.1848 -18.2429 213.083
    endloop
  endfacet
  facet normal -0.743145 0.628777 0.228856
    outer loop
      vertex -50.1848 -27.0068 237.161
      vertex -60.6763 -30.1857 211.827
      vertex -60.6763 -38.9497 235.906
    endloop
  endfacet
  facet normal 0.951057 -0.29038 -0.10569
    outer loop
      vertex 72.8713 -97.9326 219.069
      vertex 73.3611 -87.9723 196.11
      vertex 73.3611 -96.5241 219.606
    endloop
  endfacet
  facet normal 0.951057 -0.290381 -0.105687
    outer loop
      vertex 72.8713 -97.9326 219.069
      vertex 73.3611 -96.5241 219.606
      vertex 72.988 -97.6168 219.251
    endloop
  endfacet
  facet normal 0.951056 -0.290382 -0.10569
    outer loop
      vertex 73.3611 -87.9723 196.11
      vertex 72.8713 -97.9326 219.069
      vertex 72.6665 -89.852 195.025
    endloop
  endfacet
  facet normal 0.587785 -0.760227 -0.2767
    outer loop
      vertex 38.9566 -139.082 195.311
      vertex 50.1848 -123.273 175.729
      vertex 50.1848 -131.908 199.453
    endloop
  endfacet
  facet normal 0.587785 -0.760227 -0.2767
    outer loop
      vertex 38.9566 -139.082 195.311
      vertex 45.3314 -126.374 173.939
      vertex 50.1848 -123.273 175.729
    endloop
  endfacet
  facet normal 0.587785 -0.760227 -0.2767
    outer loop
      vertex 45.3314 -126.374 173.939
      vertex 38.9566 -139.082 195.311
      vertex 39.5092 -129.764 170.886
    endloop
  endfacet
  facet normal 0.743145 -0.628777 -0.228856
    outer loop
      vertex 50.1848 -131.908 199.453
      vertex 60.6763 -113.026 181.645
      vertex 60.6763 -121.661 205.369
    endloop
  endfacet
  facet normal 0.743145 -0.628777 -0.228856
    outer loop
      vertex 60.6763 -113.026 181.645
      vertex 50.1848 -131.908 199.453
      vertex 50.1848 -123.273 175.729
    endloop
  endfacet
  facet normal 0.40674 -0.858451 -0.31245
    outer loop
      vertex 23.1763 -145.217 190.428
      vertex 25.5107 -135.213 165.98
      vertex 24.8732 -144.612 190.974
    endloop
  endfacet
  facet normal 0.406737 -0.858452 -0.312451
    outer loop
      vertex 25.5107 -135.213 165.98
      vertex 23.1763 -145.217 190.428
      vertex 23.1763 -136.046 165.23
    endloop
  endfacet
  facet normal 0.207912 -0.919158 -0.334546
    outer loop
      vertex 7.83963 -147.83 188.076
      vertex 20.6605 -136.474 164.844
      vertex 21.3475 -145.529 190.148
    endloop
  endfacet
  facet normal 0.207912 -0.919158 -0.334546
    outer loop
      vertex 20.6605 -136.474 164.844
      vertex 7.83963 -147.83 188.076
      vertex 7.83963 -138.659 162.877
    endloop
  endfacet
  facet normal -0.207912 -0.919158 -0.334546
    outer loop
      vertex -20.6605 -136.474 164.844
      vertex -7.83963 -147.83 188.076
      vertex -21.3475 -145.529 190.148
    endloop
  endfacet
  facet normal -0.207912 -0.919158 -0.334546
    outer loop
      vertex -7.83963 -147.83 188.076
      vertex -20.6605 -136.474 164.844
      vertex -7.83963 -138.659 162.877
    endloop
  endfacet
  facet normal -0.40674 -0.858451 -0.31245
    outer loop
      vertex -25.5107 -135.213 165.98
      vertex -23.1763 -145.217 190.428
      vertex -24.8732 -144.612 190.974
    endloop
  endfacet
  facet normal -0.406737 -0.858452 -0.312451
    outer loop
      vertex -23.1763 -145.217 190.428
      vertex -25.5107 -135.213 165.98
      vertex -23.1763 -136.046 165.23
    endloop
  endfacet
  facet normal -0.587785 0.760227 0.2767
    outer loop
      vertex -48.1999 -16.7647 213.238
      vertex -50.1848 -27.0068 237.161
      vertex -48.7437 -25.9337 237.274
    endloop
  endfacet
  facet normal -0.587786 0.760227 0.2767
    outer loop
      vertex -50.1848 -27.0068 237.161
      vertex -48.1999 -16.7647 213.238
      vertex -50.1848 -18.2429 213.083
    endloop
  endfacet
  facet normal -0.994522 0.0982243 0.035751
    outer loop
      vertex -75 -73.1761 201.05
      vertex -73.5295 -68.3706 228.754
      vertex -73.5974 -60.4765 205.176
    endloop
  endfacet
  facet normal -0.994522 0.0982249 0.0357509
    outer loop
      vertex -73.5295 -68.3706 228.754
      vertex -75 -73.1761 201.05
      vertex -75 -81.6849 224.427
    endloop
  endfacet
  facet normal 0.994522 -0.0982259 -0.0357513
    outer loop
      vertex 75 -81.6849 224.427
      vertex 74.7652 -75.3023 200.359
      vertex 75 -73.1761 201.05
    endloop
  endfacet
  facet normal 0.994522 -0.0982268 -0.0357515
    outer loop
      vertex 74.7652 -75.3023 200.359
      vertex 75 -81.6849 224.427
      vertex 74.8331 -83.1964 223.936
    endloop
  endfacet
  facet normal 0.994522 -0.0982245 -0.0357508
    outer loop
      vertex 74.8331 -83.1964 223.936
      vertex 73.4237 -87.4484 196.412
      vertex 74.7652 -75.3023 200.359
    endloop
  endfacet
  facet normal 0.994522 -0.0982245 -0.0357508
    outer loop
      vertex 73.3611 -96.5241 219.606
      vertex 73.4237 -87.4484 196.412
      vertex 74.8331 -83.1964 223.936
    endloop
  endfacet
  facet normal 0.994522 -0.0982243 -0.0357507
    outer loop
      vertex 73.4237 -87.4484 196.412
      vertex 73.3611 -96.5241 219.606
      vertex 73.3611 -87.9723 196.11
    endloop
  endfacet
  facet normal 0.406736 -0.858452 -0.312451
    outer loop
      vertex 37.5 -130.934 169.832
      vertex 34.8024 -141.068 194.164
      vertex 24.8732 -144.612 190.974
    endloop
  endfacet
  facet normal 0.406737 -0.858452 -0.312451
    outer loop
      vertex 34.8024 -141.068 194.164
      vertex 37.5 -130.934 169.832
      vertex 37.5 -140.012 194.774
    endloop
  endfacet
  facet normal 0.406736 -0.858452 -0.312451
    outer loop
      vertex 37.5 -130.934 169.832
      vertex 24.8732 -144.612 190.974
      vertex 25.5107 -135.213 165.98
    endloop
  endfacet
  facet normal 0.587788 -0.760225 -0.276699
    outer loop
      vertex 37.5 -140.012 194.774
      vertex 39.5092 -129.764 170.886
      vertex 38.9566 -139.082 195.311
    endloop
  endfacet
  facet normal 0.587788 -0.760225 -0.276699
    outer loop
      vertex 39.5092 -129.764 170.886
      vertex 37.5 -140.012 194.774
      vertex 37.5 -130.934 169.832
    endloop
  endfacet
  facet normal -0.587788 -0.760225 -0.276699
    outer loop
      vertex -39.5092 -129.764 170.886
      vertex -37.5 -140.012 194.774
      vertex -38.9566 -139.082 195.311
    endloop
  endfacet
  facet normal -0.587788 -0.760225 -0.276699
    outer loop
      vertex -37.5 -140.012 194.774
      vertex -39.5092 -129.764 170.886
      vertex -37.5 -130.934 169.832
    endloop
  endfacet
  facet normal -0.406737 -0.858452 -0.312451
    outer loop
      vertex -37.5 -130.934 169.832
      vertex -34.8024 -141.068 194.164
      vertex -37.5 -140.012 194.774
    endloop
  endfacet
  facet normal -0.406736 -0.858452 -0.312451
    outer loop
      vertex -34.8024 -141.068 194.164
      vertex -37.5 -130.934 169.832
      vertex -24.8732 -144.612 190.974
    endloop
  endfacet
  facet normal -0.406736 -0.858452 -0.312451
    outer loop
      vertex -24.8732 -144.612 190.974
      vertex -37.5 -130.934 169.832
      vertex -25.5107 -135.213 165.98
    endloop
  endfacet
  facet normal -0.994522 0.0982265 0.0357516
    outer loop
      vertex -73.5974 -60.4765 205.176
      vertex -73.3611 -66.8457 229.249
      vertex -73.3611 -58.3369 205.871
    endloop
  endfacet
  facet normal -0.994522 0.0982232 0.0357507
    outer loop
      vertex -73.3611 -66.8457 229.249
      vertex -73.5974 -60.4765 205.176
      vertex -73.5295 -68.3706 228.754
    endloop
  endfacet
  facet normal -0.951057 0.290381 0.10569
    outer loop
      vertex -73.3611 -58.3369 205.871
      vertex -69.018 -54.1257 233.382
      vertex -69.2188 -46.2047 209.813
    endloop
  endfacet
  facet normal -0.951057 0.290381 0.10569
    outer loop
      vertex -69.018 -54.1257 233.382
      vertex -73.3611 -58.3369 205.871
      vertex -73.3611 -66.8457 229.249
    endloop
  endfacet
  facet normal -1 0 0
    outer loop
      vertex -220 126.63 202.5
      vertex -220 220 337.5
      vertex -220 220 202.5
    endloop
  endfacet
  facet normal -1 0 0
    outer loop
      vertex -220 97.6168 219.251
      vertex -220 220 337.5
      vertex -220 126.63 202.5
    endloop
  endfacet
  facet normal -1 0 0
    outer loop
      vertex -220 49.8988 234.755
      vertex -220 220 337.5
      vertex -220 97.6168 219.251
    endloop
  endfacet
  facet normal -1 0 0
    outer loop
      vertex -220 0 240
      vertex -220 220 337.5
      vertex -220 49.8988 234.755
    endloop
  endfacet
  facet normal -1 0 0
    outer loop
      vertex -220 -220 337.5
      vertex -220 0 240
      vertex -220 -49.8988 234.755
    endloop
  endfacet
  facet normal -1 0 0
    outer loop
      vertex -220 -220 337.5
      vertex -220 -49.8988 234.755
      vertex -220 -97.6168 219.251
    endloop
  endfacet
  facet normal -1 0 0
    outer loop
      vertex -220 -220 112.5
      vertex -220 -207.846 120
      vertex -220 -211.185 112.5
    endloop
  endfacet
  facet normal -1 0 0
    outer loop
      vertex -220 -220 112.5
      vertex -220 -178.355 160.591
      vertex -220 -207.846 120
    endloop
  endfacet
  facet normal -1 0 0
    outer loop
      vertex -220 0 240
      vertex -220 -220 337.5
      vertex -220 220 337.5
    endloop
  endfacet
  facet normal -1 0 0
    outer loop
      vertex -220 -141.068 194.164
      vertex -220 -220 337.5
      vertex -220 -97.6168 219.251
    endloop
  endfacet
  facet normal -1 0 0
    outer loop
      vertex -220 -178.355 160.591
      vertex -220 -220 337.5
      vertex -220 -141.068 194.164
    endloop
  endfacet
  facet normal -1 0 0
    outer loop
      vertex -220 -220 337.5
      vertex -220 -178.355 160.591
      vertex -220 -220 112.5
    endloop
  endfacet
  facet normal -0 0 1
    outer loop
      vertex -220 220 337.5
      vertex 220 -220 337.5
      vertex 220 220 337.5
    endloop
  endfacet
  facet normal 0 0 1
    outer loop
      vertex 220 -220 337.5
      vertex -220 220 337.5
      vertex -220 -220 337.5
    endloop
  endfacet
  facet normal 1 0 0
    outer loop
      vertex 220 220 337.5
      vertex 220 126.63 202.5
      vertex 220 220 202.5
    endloop
  endfacet
  facet normal 1 0 0
    outer loop
      vertex 220 220 337.5
      vertex 220 97.6168 219.251
      vertex 220 126.63 202.5
    endloop
  endfacet
  facet normal 1 0 0
    outer loop
      vertex 220 220 337.5
      vertex 220 49.8988 234.755
      vertex 220 97.6168 219.251
    endloop
  endfacet
  facet normal 1 0 0
    outer loop
      vertex 220 220 337.5
      vertex 220 0 240
      vertex 220 49.8988 234.755
    endloop
  endfacet
  facet normal 1 -0 0
    outer loop
      vertex 220 -220 337.5
      vertex 220 0 240
      vertex 220 220 337.5
    endloop
  endfacet
  facet normal 1 0 0
    outer loop
      vertex 220 0 240
      vertex 220 -220 337.5
      vertex 220 -49.8988 234.755
    endloop
  endfacet
  facet normal 1 0 0
    outer loop
      vertex 220 -49.8988 234.755
      vertex 220 -220 337.5
      vertex 220 -97.6168 219.251
    endloop
  endfacet
  facet normal 1 0 0
    outer loop
      vertex 220 -220 337.5
      vertex 220 -141.068 194.164
      vertex 220 -97.6168 219.251
    endloop
  endfacet
  facet normal 1 0 0
    outer loop
      vertex 220 -220 337.5
      vertex 220 -178.355 160.591
      vertex 220 -141.068 194.164
    endloop
  endfacet
  facet normal 1 0 0
    outer loop
      vertex 220 -220 112.5
      vertex 220 -178.355 160.591
      vertex 220 -220 337.5
    endloop
  endfacet
  facet normal 1 0 0
    outer loop
      vertex 220 -178.355 160.591
      vertex 220 -220 112.5
      vertex 220 -207.846 120
    endloop
  endfacet
  facet normal 1 0 0
    outer loop
      vertex 220 -207.846 120
      vertex 220 -220 112.5
      vertex 220 -211.185 112.5
    endloop
  endfacet
  facet normal 0 0 -1
    outer loop
      vertex -220 -220 112.5
      vertex 220 -211.185 112.5
      vertex 220 -220 112.5
    endloop
  endfacet
  facet normal -0 0 -1
    outer loop
      vertex 220 -211.185 112.5
      vertex -220 -220 112.5
      vertex -220 -211.185 112.5
    endloop
  endfacet
  facet normal 0 -1 0
    outer loop
      vertex -220 -220 112.5
      vertex 220 -220 337.5
      vertex -220 -220 337.5
    endloop
  endfacet
  facet normal 0 -1 -0
    outer loop
      vertex 220 -220 337.5
      vertex -220 -220 112.5
      vertex 220 -220 112.5
    endloop
  endfacet
  facet normal 0 1 -0
    outer loop
      vertex 220 220 202.5
      vertex -220 220 337.5
      vertex 220 220 337.5
    endloop
  endfacet
  facet normal 0 1 0
    outer loop
      vertex -220 220 337.5
      vertex 220 220 202.5
      vertex -220 220 202.5
    endloop
  endfacet
  facet normal -4.62194e-006 0.309017 -0.951057
    outer loop
      vertex 74.7652 -75.3023 200.359
      vertex 73.5974 -60.4765 205.176
      vertex 75 -73.1761 201.05
    endloop
  endfacet
  facet normal -2.42005e-006 0.309017 -0.951057
    outer loop
      vertex 73.4237 -87.4484 196.412
      vertex 73.5974 -60.4765 205.176
      vertex 74.7652 -75.3023 200.359
    endloop
  endfacet
  facet normal -1.07944e-006 0.309017 -0.951057
    outer loop
      vertex 69.2188 -46.2047 209.813
      vertex 73.5974 -60.4765 205.176
      vertex 73.4237 -87.4484 196.412
    endloop
  endfacet
  facet normal 1.2243e-005 0.309021 -0.951055
    outer loop
      vertex 73.5974 -60.4765 205.176
      vertex 69.2188 -46.2047 209.813
      vertex 73.3611 -58.3369 205.871
    endloop
  endfacet
  facet normal 0 0.309017 -0.951057
    outer loop
      vertex -69.2188 -46.2047 209.813
      vertex 69.2188 -46.2047 209.813
      vertex 73.4237 -87.4484 196.412
    endloop
  endfacet
  facet normal 0 0.309012 -0.951058
    outer loop
      vertex 69.2188 -46.2047 209.813
      vertex -69.2188 -46.2047 209.813
      vertex 68.7053 -44.701 210.302
    endloop
  endfacet
  facet normal 0 0.309012 -0.951058
    outer loop
      vertex 68.7053 -44.701 210.302
      vertex -69.2188 -46.2047 209.813
      vertex -68.7053 -44.701 210.302
    endloop
  endfacet
  facet normal 0 0.309017 -0.951057
    outer loop
      vertex -73.4237 -87.4484 196.412
      vertex -69.2188 -46.2047 209.813
      vertex 73.4237 -87.4484 196.412
    endloop
  endfacet
  facet normal 1.07944e-006 0.309017 -0.951057
    outer loop
      vertex -69.2188 -46.2047 209.813
      vertex -73.4237 -87.4484 196.412
      vertex -73.5974 -60.4765 205.176
    endloop
  endfacet
  facet normal -1.2243e-005 0.309021 -0.951055
    outer loop
      vertex -69.2188 -46.2047 209.813
      vertex -73.5974 -60.4765 205.176
      vertex -73.3611 -58.3369 205.871
    endloop
  endfacet
  facet normal 2.42005e-006 0.309017 -0.951057
    outer loop
      vertex -74.7652 -75.3023 200.359
      vertex -73.5974 -60.4765 205.176
      vertex -73.4237 -87.4484 196.412
    endloop
  endfacet
  facet normal 4.62194e-006 0.309017 -0.951057
    outer loop
      vertex -73.5974 -60.4765 205.176
      vertex -74.7652 -75.3023 200.359
      vertex -75 -73.1761 201.05
    endloop
  endfacet
  facet normal 0 -0.104524 -0.994522
    outer loop
      vertex -10.3502 0.576672 214.939
      vertex 10.3502 0.576672 214.939
      vertex 12.8021 0 215
    endloop
  endfacet
  facet normal -0 -0.104546 -0.99452
    outer loop
      vertex 10.3502 0.576672 214.939
      vertex -10.3502 0.576672 214.939
      vertex 7.83963 1.16716 214.877
    endloop
  endfacet
  facet normal -0 -0.104546 -0.99452
    outer loop
      vertex 7.83963 1.16716 214.877
      vertex -10.3502 0.576672 214.939
      vertex -7.83963 1.16716 214.877
    endloop
  endfacet
  facet normal 0 -0.104524 -0.994522
    outer loop
      vertex -10.3502 0.576672 214.939
      vertex 12.8021 0 215
      vertex -12.8021 0 215
    endloop
  endfacet
  facet normal 7.95423e-005 0.104572 -0.994517
    outer loop
      vertex 68.7053 -44.701 210.302
      vertex 60.6763 -30.1857 211.827
      vertex 68.5159 -44.1034 210.365
    endloop
  endfacet
  facet normal -7.639e-007 0.104528 -0.994522
    outer loop
      vertex 48.1999 -16.7647 213.238
      vertex 60.6763 -30.1857 211.827
      vertex 68.7053 -44.701 210.302
    endloop
  endfacet
  facet normal -1.00995e-005 0.10452 -0.994523
    outer loop
      vertex 60.6763 -30.1857 211.827
      vertex 48.1999 -16.7647 213.238
      vertex 50.1848 -18.2429 213.083
    endloop
  endfacet
  facet normal 4.84815e-007 0.104529 -0.994522
    outer loop
      vertex 12.8021 0 215
      vertex 48.1999 -16.7647 213.238
      vertex 68.7053 -44.701 210.302
    endloop
  endfacet
  facet normal -1.29131e-006 0.104526 -0.994522
    outer loop
      vertex 48.1999 -16.7647 213.238
      vertex 35.2063 -7.74998 214.185
      vertex 37.5 -8.79671 214.075
    endloop
  endfacet
  facet normal -1.04494e-006 0.104526 -0.994522
    outer loop
      vertex 48.1999 -16.7647 213.238
      vertex 12.8021 0 215
      vertex 35.2063 -7.74998 214.185
    endloop
  endfacet
  facet normal 9.29307e-007 0.104532 -0.994522
    outer loop
      vertex 35.2063 -7.74998 214.185
      vertex 12.8021 0 215
      vertex 23.1763 -2.26015 214.762
    endloop
  endfacet
  facet normal 0 0.104529 -0.994522
    outer loop
      vertex 68.7053 -44.701 210.302
      vertex -12.8021 0 215
      vertex 12.8021 0 215
    endloop
  endfacet
  facet normal 8.4235e-008 0.104529 -0.994522
    outer loop
      vertex -35.2063 -7.74998 214.185
      vertex -12.8021 0 215
      vertex 68.7053 -44.701 210.302
    endloop
  endfacet
  facet normal -9.29307e-007 0.104532 -0.994522
    outer loop
      vertex -12.8021 0 215
      vertex -35.2063 -7.74998 214.185
      vertex -23.1763 -2.26015 214.762
    endloop
  endfacet
  facet normal -2.43151e-007 0.104528 -0.994522
    outer loop
      vertex -48.1999 -16.7647 213.238
      vertex -35.2063 -7.74998 214.185
      vertex 68.7053 -44.701 210.302
    endloop
  endfacet
  facet normal 1.29131e-006 0.104526 -0.994522
    outer loop
      vertex -35.2063 -7.74998 214.185
      vertex -48.1999 -16.7647 213.238
      vertex -37.5 -8.79671 214.075
    endloop
  endfacet
  facet normal 2.92169e-008 0.104529 -0.994522
    outer loop
      vertex -60.6763 -30.1857 211.827
      vertex -48.1999 -16.7647 213.238
      vertex 68.7053 -44.701 210.302
    endloop
  endfacet
  facet normal 1.00995e-005 0.10452 -0.994523
    outer loop
      vertex -48.1999 -16.7647 213.238
      vertex -60.6763 -30.1857 211.827
      vertex -50.1848 -18.2429 213.083
    endloop
  endfacet
  facet normal 0 0.104529 -0.994522
    outer loop
      vertex -68.7053 -44.701 210.302
      vertex -60.6763 -30.1857 211.827
      vertex 68.7053 -44.701 210.302
    endloop
  endfacet
  facet normal -7.95423e-005 0.104572 -0.994517
    outer loop
      vertex -60.6763 -30.1857 211.827
      vertex -68.7053 -44.701 210.302
      vertex -68.5159 -44.1034 210.365
    endloop
  endfacet
  facet normal 8.55054e-006 0.669117 -0.743157
    outer loop
      vertex 25.5107 -135.213 165.98
      vertex 39.5092 -129.764 170.886
      vertex 37.5 -130.934 169.832
    endloop
  endfacet
  facet normal -5.8513e-006 0.669138 -0.743138
    outer loop
      vertex 25.5107 -135.213 165.98
      vertex 45.3314 -126.374 173.939
      vertex 39.5092 -129.764 170.886
    endloop
  endfacet
  facet normal 2.3758e-006 0.669129 -0.743146
    outer loop
      vertex 20.6605 -136.474 164.844
      vertex 25.5107 -135.213 165.98
      vertex 23.1763 -136.046 165.23
    endloop
  endfacet
  facet normal 4.64853e-006 0.669125 -0.74315
    outer loop
      vertex 25.5107 -135.213 165.98
      vertex 20.6605 -136.474 164.844
      vertex 45.3314 -126.374 173.939
    endloop
  endfacet
  facet normal -1.90125e-006 0.669134 -0.743142
    outer loop
      vertex 7.83963 -138.659 162.877
      vertex 45.3314 -126.374 173.939
      vertex 20.6605 -136.474 164.844
    endloop
  endfacet
  facet normal 0 0.66913 -0.743145
    outer loop
      vertex -7.83963 -138.659 162.877
      vertex 45.3314 -126.374 173.939
      vertex 7.83963 -138.659 162.877
    endloop
  endfacet
  facet normal 5.25346e-007 0.669129 -0.743146
    outer loop
      vertex -20.6605 -136.474 164.844
      vertex 45.3314 -126.374 173.939
      vertex -7.83963 -138.659 162.877
    endloop
  endfacet
  facet normal -2.3758e-006 0.669129 -0.743146
    outer loop
      vertex -25.5107 -135.213 165.98
      vertex -20.6605 -136.474 164.844
      vertex -23.1763 -136.046 165.23
    endloop
  endfacet
  facet normal -4.64853e-006 0.669125 -0.74315
    outer loop
      vertex -45.3314 -126.374 173.939
      vertex -20.6605 -136.474 164.844
      vertex -25.5107 -135.213 165.98
    endloop
  endfacet
  facet normal -8.55054e-006 0.669117 -0.743157
    outer loop
      vertex -39.5092 -129.764 170.886
      vertex -25.5107 -135.213 165.98
      vertex -37.5 -130.934 169.832
    endloop
  endfacet
  facet normal 5.8513e-006 0.669138 -0.743138
    outer loop
      vertex -45.3314 -126.374 173.939
      vertex -25.5107 -135.213 165.98
      vertex -39.5092 -129.764 170.886
    endloop
  endfacet
  facet normal 0 0.669131 -0.743145
    outer loop
      vertex -20.6605 -136.474 164.844
      vertex -45.3314 -126.374 173.939
      vertex 45.3314 -126.374 173.939
    endloop
  endfacet
  facet normal -9.35364e-005 0.500024 -0.866011
    outer loop
      vertex 72.6665 -89.852 195.025
      vertex 73.4237 -87.4484 196.412
      vertex 73.3611 -87.9723 196.11
    endloop
  endfacet
  facet normal -2.2909e-007 0.5 -0.866025
    outer loop
      vertex 60.6763 -113.026 181.645
      vertex 72.6665 -89.852 195.025
      vertex 68.5159 -101.086 188.539
    endloop
  endfacet
  facet normal -1.20121e-006 0.500001 -0.866025
    outer loop
      vertex 45.3314 -126.374 173.939
      vertex 72.6665 -89.852 195.025
      vertex 60.6763 -113.026 181.645
    endloop
  endfacet
  facet normal 1.86909e-006 0.499998 -0.866027
    outer loop
      vertex 45.3314 -126.374 173.939
      vertex 60.6763 -113.026 181.645
      vertex 50.1848 -123.273 175.729
    endloop
  endfacet
  facet normal -6.65839e-006 0.500004 -0.866023
    outer loop
      vertex 72.6665 -89.852 195.025
      vertex 45.3314 -126.374 173.939
      vertex 73.4237 -87.4484 196.412
    endloop
  endfacet
  facet normal 0 0.5 -0.866025
    outer loop
      vertex -45.3314 -126.374 173.939
      vertex 73.4237 -87.4484 196.412
      vertex 45.3314 -126.374 173.939
    endloop
  endfacet
  facet normal -1.86909e-006 0.499998 -0.866027
    outer loop
      vertex -60.6763 -113.026 181.645
      vertex -45.3314 -126.374 173.939
      vertex -50.1848 -123.273 175.729
    endloop
  endfacet
  facet normal 1.20121e-006 0.500001 -0.866025
    outer loop
      vertex -45.3314 -126.374 173.939
      vertex -60.6763 -113.026 181.645
      vertex -72.6665 -89.852 195.025
    endloop
  endfacet
  facet normal 2.2909e-007 0.5 -0.866025
    outer loop
      vertex -72.6665 -89.852 195.025
      vertex -60.6763 -113.026 181.645
      vertex -68.5159 -101.086 188.539
    endloop
  endfacet
  facet normal 6.65839e-006 0.500004 -0.866023
    outer loop
      vertex -73.4237 -87.4484 196.412
      vertex -45.3314 -126.374 173.939
      vertex -72.6665 -89.852 195.025
    endloop
  endfacet
  facet normal 9.35364e-005 0.500024 -0.866011
    outer loop
      vertex -73.4237 -87.4484 196.412
      vertex -72.6665 -89.852 195.025
      vertex -73.3611 -87.9723 196.11
    endloop
  endfacet
  facet normal 0 0.5 -0.866025
    outer loop
      vertex -45.3314 -126.374 173.939
      vertex -73.4237 -87.4484 196.412
      vertex 73.4237 -87.4484 196.412
    endloop
  endfacet
  facet normal 0 0 -1
    outer loop
      vertex -220 126.63 202.5
      vertex 220 220 202.5
      vertex 220 126.63 202.5
    endloop
  endfacet
  facet normal -0 0 -1
    outer loop
      vertex 220 220 202.5
      vertex -220 126.63 202.5
      vertex -220 220 202.5
    endloop
  endfacet
endsolid OpenSCAD_Model
