solid OpenSCAD_Model
  facet normal -7.3651e-008 0.309018 -0.951056
    outer loop
      vertex -220 -97.6168 219.251
      vertex -74.8331 -83.1964 223.936
      vertex -73.3611 -96.5241 219.606
    endloop
  endfacet
  facet normal 7.99038e-008 0.309016 -0.951057
    outer loop
      vertex -74.8331 -83.1964 223.936
      vertex -220 -97.6168 219.251
      vertex -75 -81.6849 224.427
    endloop
  endfacet
  facet normal 0 0.309009 -0.951059
    outer loop
      vertex -220 -97.6168 219.251
      vertex -73.3611 -96.5241 219.606
      vertex -72.988 -97.6168 219.251
    endloop
  endfacet
  facet normal 1.01739e-007 0.309017 -0.951056
    outer loop
      vertex -220 -49.8988 234.755
      vertex -73.5295 -68.3706 228.754
      vertex -75 -81.6849 224.427
    endloop
  endfacet
  facet normal 2.07578e-008 0.309017 -0.951057
    outer loop
      vertex -220 -49.8988 234.755
      vertex -75 -81.6849 224.427
      vertex -220 -97.6168 219.251
    endloop
  endfacet
  facet normal -6.98334e-007 0.309011 -0.951058
    outer loop
      vertex -73.5295 -68.3706 228.754
      vertex -220 -49.8988 234.755
      vertex -73.3611 -66.8457 229.249
    endloop
  endfacet
  facet normal 6.60568e-008 0.309017 -0.951056
    outer loop
      vertex -73.3611 -66.8457 229.249
      vertex -220 -49.8988 234.755
      vertex -69.018 -54.1257 233.382
    endloop
  endfacet
  facet normal 1.20202e-007 0.309019 -0.951056
    outer loop
      vertex -69.018 -54.1257 233.382
      vertex -220 -49.8988 234.755
      vertex -68.5159 -52.655 233.86
    endloop
  endfacet
  facet normal 0 0.309013 -0.951058
    outer loop
      vertex -68.5159 -52.655 233.86
      vertex -220 -49.8988 234.755
      vertex -66.8437 -49.8988 234.755
    endloop
  endfacet
  facet normal -2.07578e-008 0.309017 -0.951057
    outer loop
      vertex 220 -97.6168 219.251
      vertex 75 -81.6849 224.427
      vertex 220 -49.8988 234.755
    endloop
  endfacet
  facet normal -7.99038e-008 0.309016 -0.951057
    outer loop
      vertex 220 -97.6168 219.251
      vertex 74.8331 -83.1964 223.936
      vertex 75 -81.6849 224.427
    endloop
  endfacet
  facet normal 7.3651e-008 0.309018 -0.951056
    outer loop
      vertex 220 -97.6168 219.251
      vertex 73.3611 -96.5241 219.606
      vertex 74.8331 -83.1964 223.936
    endloop
  endfacet
  facet normal 0 0.309009 -0.951059
    outer loop
      vertex 73.3611 -96.5241 219.606
      vertex 220 -97.6168 219.251
      vertex 72.988 -97.6168 219.251
    endloop
  endfacet
  facet normal -1.01739e-007 0.309017 -0.951056
    outer loop
      vertex 73.5295 -68.3706 228.754
      vertex 220 -49.8988 234.755
      vertex 75 -81.6849 224.427
    endloop
  endfacet
  facet normal 6.98334e-007 0.309011 -0.951058
    outer loop
      vertex 73.3611 -66.8457 229.249
      vertex 220 -49.8988 234.755
      vertex 73.5295 -68.3706 228.754
    endloop
  endfacet
  facet normal -6.60568e-008 0.309017 -0.951056
    outer loop
      vertex 69.018 -54.1257 233.382
      vertex 220 -49.8988 234.755
      vertex 73.3611 -66.8457 229.249
    endloop
  endfacet
  facet normal -1.20202e-007 0.309019 -0.951056
    outer loop
      vertex 68.5159 -52.655 233.86
      vertex 220 -49.8988 234.755
      vertex 69.018 -54.1257 233.382
    endloop
  endfacet
  facet normal 0 0.309013 -0.951058
    outer loop
      vertex 220 -49.8988 234.755
      vertex 68.5159 -52.655 233.86
      vertex 66.8437 -49.8988 234.755
    endloop
  endfacet
  facet normal 0 -0.309017 -0.951057
    outer loop
      vertex -220 49.8988 234.755
      vertex 220 97.6168 219.251
      vertex 220 49.8988 234.755
    endloop
  endfacet
  facet normal -0 -0.309017 -0.951057
    outer loop
      vertex 220 97.6168 219.251
      vertex -220 49.8988 234.755
      vertex -220 97.6168 219.251
    endloop
  endfacet
  facet normal 0 -0.913545 -0.406737
    outer loop
      vertex 151.368 211.185 112.5
      vertex 220 207.846 120
      vertex -220 207.846 120
    endloop
  endfacet
  facet normal -0 -0.913545 -0.406737
    outer loop
      vertex 151.368 211.185 112.5
      vertex -220 207.846 120
      vertex -220 211.185 112.5
    endloop
  endfacet
  facet normal -5.64007e-007 -0.913547 -0.406733
    outer loop
      vertex 220 207.846 120
      vertex 151.368 211.185 112.5
      vertex 220 208.073 119.491
    endloop
  endfacet
  facet normal 0 -0.5 -0.866025
    outer loop
      vertex -220 97.6168 219.251
      vertex 220 141.068 194.164
      vertex 220 97.6168 219.251
    endloop
  endfacet
  facet normal -0 -0.5 -0.866025
    outer loop
      vertex 220 141.068 194.164
      vertex -220 97.6168 219.251
      vertex -220 141.068 194.164
    endloop
  endfacet
  facet normal -0 -0.913545 -0.406737
    outer loop
      vertex 220 211.185 112.5
      vertex 220 208.073 119.491
      vertex 151.368 211.185 112.5
    endloop
  endfacet
  facet normal 0 -0.104529 -0.994522
    outer loop
      vertex -220 0 240
      vertex 220 49.8988 234.755
      vertex 220 0 240
    endloop
  endfacet
  facet normal -0 -0.104529 -0.994522
    outer loop
      vertex 220 49.8988 234.755
      vertex -220 0 240
      vertex -220 49.8988 234.755
    endloop
  endfacet
  facet normal -1.11221e-007 0.500009 -0.86602
    outer loop
      vertex -220 -141.068 194.164
      vertex -38.9566 -139.082 195.311
      vertex -37.5 -140.012 194.774
    endloop
  endfacet
  facet normal 0 0.499994 -0.866029
    outer loop
      vertex -220 -141.068 194.164
      vertex -37.5 -140.012 194.774
      vertex -34.8024 -141.068 194.164
    endloop
  endfacet
  facet normal 1.96193e-008 0.5 -0.866026
    outer loop
      vertex -38.9566 -139.082 195.311
      vertex -220 -141.068 194.164
      vertex -50.1848 -131.908 199.453
    endloop
  endfacet
  facet normal 2.79929e-008 0.5 -0.866026
    outer loop
      vertex -220 -141.068 194.164
      vertex -60.6763 -121.661 205.369
      vertex -50.1848 -131.908 199.453
    endloop
  endfacet
  facet normal -1.39809e-009 0.5 -0.866026
    outer loop
      vertex -220 -141.068 194.164
      vertex -68.5159 -109.72 212.263
      vertex -60.6763 -121.661 205.369
    endloop
  endfacet
  facet normal -2.11652e-007 0.500001 -0.866025
    outer loop
      vertex -220 -141.068 194.164
      vertex -72.8713 -97.9326 219.069
      vertex -68.5159 -109.72 212.263
    endloop
  endfacet
  facet normal 1.45454e-006 0.499996 -0.866028
    outer loop
      vertex -220 -141.068 194.164
      vertex -72.988 -97.6168 219.251
      vertex -72.8713 -97.9326 219.069
    endloop
  endfacet
  facet normal 0 0.5 -0.866025
    outer loop
      vertex -72.988 -97.6168 219.251
      vertex -220 -141.068 194.164
      vertex -220 -97.6168 219.251
    endloop
  endfacet
  facet normal 0 0.5 -0.866025
    outer loop
      vertex 220 -141.068 194.164
      vertex 72.988 -97.6168 219.251
      vertex 220 -97.6168 219.251
    endloop
  endfacet
  facet normal -1.45454e-006 0.499996 -0.866028
    outer loop
      vertex 220 -141.068 194.164
      vertex 72.8713 -97.9326 219.069
      vertex 72.988 -97.6168 219.251
    endloop
  endfacet
  facet normal 2.11652e-007 0.500001 -0.866025
    outer loop
      vertex 220 -141.068 194.164
      vertex 68.5159 -109.72 212.263
      vertex 72.8713 -97.9326 219.069
    endloop
  endfacet
  facet normal 1.39809e-009 0.5 -0.866026
    outer loop
      vertex 220 -141.068 194.164
      vertex 60.6763 -121.661 205.369
      vertex 68.5159 -109.72 212.263
    endloop
  endfacet
  facet normal -2.79929e-008 0.5 -0.866026
    outer loop
      vertex 220 -141.068 194.164
      vertex 50.1848 -131.908 199.453
      vertex 60.6763 -121.661 205.369
    endloop
  endfacet
  facet normal -1.96193e-008 0.5 -0.866026
    outer loop
      vertex 220 -141.068 194.164
      vertex 38.9566 -139.082 195.311
      vertex 50.1848 -131.908 199.453
    endloop
  endfacet
  facet normal 1.11221e-007 0.500009 -0.86602
    outer loop
      vertex 220 -141.068 194.164
      vertex 37.5 -140.012 194.774
      vertex 38.9566 -139.082 195.311
    endloop
  endfacet
  facet normal 0 0.499994 -0.866029
    outer loop
      vertex 37.5 -140.012 194.774
      vertex 220 -141.068 194.164
      vertex 34.8024 -141.068 194.164
    endloop
  endfacet
  facet normal 0 0.104529 -0.994522
    outer loop
      vertex 66.8437 -49.8988 234.755
      vertex 220 0 240
      vertex 220 -49.8988 234.755
    endloop
  endfacet
  facet normal -2.03441e-007 0.104529 -0.994522
    outer loop
      vertex 60.6763 -38.9497 235.906
      vertex 220 0 240
      vertex 66.8437 -49.8988 234.755
    endloop
  endfacet
  facet normal -1.97539e-008 0.104528 -0.994522
    outer loop
      vertex 50.1848 -27.0068 237.161
      vertex 220 0 240
      vertex 60.6763 -38.9497 235.906
    endloop
  endfacet
  facet normal 1.46055e-007 0.104527 -0.994522
    outer loop
      vertex 48.7437 -25.9337 237.274
      vertex 220 0 240
      vertex 50.1848 -27.0068 237.161
    endloop
  endfacet
  facet normal 1.31343e-010 0.104528 -0.994522
    outer loop
      vertex 37.5 -17.5607 238.154
      vertex 220 0 240
      vertex 48.7437 -25.9337 237.274
    endloop
  endfacet
  facet normal 3.73096e-008 0.104528 -0.994522
    outer loop
      vertex 35.8196 -16.7939 238.235
      vertex 220 0 240
      vertex 37.5 -17.5607 238.154
    endloop
  endfacet
  facet normal 1.05212e-007 0.104527 -0.994522
    outer loop
      vertex 23.1763 -11.0241 238.841
      vertex 220 0 240
      vertex 35.8196 -16.7939 238.235
    endloop
  endfacet
  facet normal 2.11224e-008 0.104529 -0.994522
    outer loop
      vertex 9.69298 -8.08662 239.15
      vertex 220 0 240
      vertex 23.1763 -11.0241 238.841
    endloop
  endfacet
  facet normal -8.74609e-007 0.104552 -0.994519
    outer loop
      vertex 7.83963 -7.68284 239.193
      vertex 220 0 240
      vertex 9.69298 -8.08662 239.15
    endloop
  endfacet
  facet normal 0 0.104528 -0.994522
    outer loop
      vertex -7.83963 -7.68284 239.193
      vertex 220 0 240
      vertex 7.83963 -7.68284 239.193
    endloop
  endfacet
  facet normal -2.11224e-008 0.104529 -0.994522
    outer loop
      vertex -220 0 240
      vertex -9.69298 -8.08662 239.15
      vertex -23.1763 -11.0241 238.841
    endloop
  endfacet
  facet normal -1.46055e-007 0.104527 -0.994522
    outer loop
      vertex -220 0 240
      vertex -48.7437 -25.9337 237.274
      vertex -50.1848 -27.0068 237.161
    endloop
  endfacet
  facet normal 0 0.104529 -0.994522
    outer loop
      vertex -220 0 240
      vertex -66.8437 -49.8988 234.755
      vertex -220 -49.8988 234.755
    endloop
  endfacet
  facet normal 2.03441e-007 0.104529 -0.994522
    outer loop
      vertex -66.8437 -49.8988 234.755
      vertex -220 0 240
      vertex -60.6763 -38.9497 235.906
    endloop
  endfacet
  facet normal 1.97539e-008 0.104528 -0.994522
    outer loop
      vertex -60.6763 -38.9497 235.906
      vertex -220 0 240
      vertex -50.1848 -27.0068 237.161
    endloop
  endfacet
  facet normal -1.31343e-010 0.104528 -0.994522
    outer loop
      vertex -48.7437 -25.9337 237.274
      vertex -220 0 240
      vertex -37.5 -17.5607 238.154
    endloop
  endfacet
  facet normal -3.73096e-008 0.104528 -0.994522
    outer loop
      vertex -37.5 -17.5607 238.154
      vertex -220 0 240
      vertex -35.8196 -16.7939 238.235
    endloop
  endfacet
  facet normal -1.05212e-007 0.104527 -0.994522
    outer loop
      vertex -35.8196 -16.7939 238.235
      vertex -220 0 240
      vertex -23.1763 -11.0241 238.841
    endloop
  endfacet
  facet normal 0 0.104528 -0.994522
    outer loop
      vertex -7.83963 -7.68284 239.193
      vertex -220 0 240
      vertex 220 0 240
    endloop
  endfacet
  facet normal 8.74609e-007 0.104552 -0.994519
    outer loop
      vertex -9.69298 -8.08662 239.15
      vertex -220 0 240
      vertex -7.83963 -7.68284 239.193
    endloop
  endfacet
  facet normal 0 -0.669131 -0.743145
    outer loop
      vertex -220 141.068 194.164
      vertex 220 178.355 160.591
      vertex 220 141.068 194.164
    endloop
  endfacet
  facet normal -0 -0.669131 -0.743145
    outer loop
      vertex 220 178.355 160.591
      vertex -220 141.068 194.164
      vertex -220 178.355 160.591
    endloop
  endfacet
  facet normal -6.0423e-009 -0.809017 -0.587785
    outer loop
      vertex -220 207.846 120
      vertex 220 207.518 120.451
      vertex -220 178.682 160.14
    endloop
  endfacet
  facet normal 0 -0.809014 -0.587789
    outer loop
      vertex 220 207.518 120.451
      vertex -220 207.846 120
      vertex 220 207.846 120
    endloop
  endfacet
  facet normal 0 0.809017 -0.587785
    outer loop
      vertex 220 -207.846 120
      vertex -220 -178.355 160.591
      vertex 220 -178.355 160.591
    endloop
  endfacet
  facet normal 0 0.809017 -0.587785
    outer loop
      vertex -220 -178.355 160.591
      vertex 220 -207.846 120
      vertex -220 -207.846 120
    endloop
  endfacet
  facet normal 0 0.913545 -0.406737
    outer loop
      vertex 220 -211.185 112.5
      vertex -220 -207.846 120
      vertex 220 -207.846 120
    endloop
  endfacet
  facet normal 0 0.913545 -0.406737
    outer loop
      vertex -220 -207.846 120
      vertex 220 -211.185 112.5
      vertex -220 -211.185 112.5
    endloop
  endfacet
  facet normal 0 0.669131 -0.743145
    outer loop
      vertex 220 -178.355 160.591
      vertex 34.8024 -141.068 194.164
      vertex 220 -141.068 194.164
    endloop
  endfacet
  facet normal 3.05913e-008 0.669131 -0.743145
    outer loop
      vertex 220 -178.355 160.591
      vertex 24.8732 -144.612 190.974
      vertex 34.8024 -141.068 194.164
    endloop
  endfacet
  facet normal -7.66701e-007 0.669128 -0.743147
    outer loop
      vertex 220 -178.355 160.591
      vertex 23.1763 -145.217 190.428
      vertex 24.8732 -144.612 190.974
    endloop
  endfacet
  facet normal 1.65989e-006 0.669136 -0.74314
    outer loop
      vertex 220 -178.355 160.591
      vertex 21.3475 -145.529 190.148
      vertex 23.1763 -145.217 190.428
    endloop
  endfacet
  facet normal -1.17791e-007 0.66913 -0.743145
    outer loop
      vertex 220 -178.355 160.591
      vertex 7.83963 -147.83 188.076
      vertex 21.3475 -145.529 190.148
    endloop
  endfacet
  facet normal 0 0.669131 -0.743145
    outer loop
      vertex 220 -178.355 160.591
      vertex -7.83963 -147.83 188.076
      vertex 7.83963 -147.83 188.076
    endloop
  endfacet
  facet normal 1.17791e-007 0.66913 -0.743145
    outer loop
      vertex -220 -178.355 160.591
      vertex -21.3475 -145.529 190.148
      vertex -7.83963 -147.83 188.076
    endloop
  endfacet
  facet normal 7.66701e-007 0.669128 -0.743147
    outer loop
      vertex -220 -178.355 160.591
      vertex -24.8732 -144.612 190.974
      vertex -23.1763 -145.217 190.428
    endloop
  endfacet
  facet normal 0 0.669131 -0.743145
    outer loop
      vertex -220 -178.355 160.591
      vertex -7.83963 -147.83 188.076
      vertex 220 -178.355 160.591
    endloop
  endfacet
  facet normal -1.65989e-006 0.669136 -0.74314
    outer loop
      vertex -21.3475 -145.529 190.148
      vertex -220 -178.355 160.591
      vertex -23.1763 -145.217 190.428
    endloop
  endfacet
  facet normal -3.05913e-008 0.669131 -0.743145
    outer loop
      vertex -24.8732 -144.612 190.974
      vertex -220 -178.355 160.591
      vertex -34.8024 -141.068 194.164
    endloop
  endfacet
  facet normal 0 0.669131 -0.743145
    outer loop
      vertex -34.8024 -141.068 194.164
      vertex -220 -178.355 160.591
      vertex -220 -141.068 194.164
    endloop
  endfacet
  facet normal 0 -0.809009 -0.587796
    outer loop
      vertex -220 178.682 160.14
      vertex 220 178.355 160.591
      vertex -220 178.355 160.591
    endloop
  endfacet
  facet normal -1.61197e-008 -0.809017 -0.587785
    outer loop
      vertex 220 178.355 160.591
      vertex -220 178.682 160.14
      vertex 220 207.518 120.451
    endloop
  endfacet
  facet normal 0.994522 0.0982251 0.035751
    outer loop
      vertex 73.3611 -66.8457 229.249
      vertex 73.6381 -55.74 191.029
      vertex 73.3611 -53.2315 191.844
    endloop
  endfacet
  facet normal 0.994522 0.0982232 0.0357505
    outer loop
      vertex 73.6381 -55.74 191.029
      vertex 73.3611 -66.8457 229.249
      vertex 73.5295 -68.3706 228.754
    endloop
  endfacet
  facet normal -0.207914 0.919158 0.334546
    outer loop
      vertex -7.83963 6.84387 199.281
      vertex -9.69298 -8.08662 239.15
      vertex -7.83963 -7.68284 239.193
    endloop
  endfacet
  facet normal -0.207913 0.919158 0.334546
    outer loop
      vertex -9.69298 -8.08662 239.15
      vertex -7.83963 6.84387 199.281
      vertex -10.7734 6.15387 199.353
    endloop
  endfacet
  facet normal 0.994522 0.0982246 0.0357509
    outer loop
      vertex 73.5295 -68.3706 228.754
      vertex 75 -68.0708 187.023
      vertex 73.6381 -55.74 191.029
    endloop
  endfacet
  facet normal 0.994522 0.0982249 0.0357509
    outer loop
      vertex 75 -68.0708 187.023
      vertex 73.5295 -68.3706 228.754
      vertex 75 -81.6849 224.427
    endloop
  endfacet
  facet normal 0.866025 -0.469846 -0.17101
    outer loop
      vertex 60.6763 -121.661 205.369
      vertex 68.5159 -95.9046 174.304
      vertex 68.5159 -109.72 212.263
    endloop
  endfacet
  facet normal 0.866025 -0.469846 -0.17101
    outer loop
      vertex 68.5159 -95.9046 174.304
      vertex 60.6763 -121.661 205.369
      vertex 60.6763 -107.845 167.41
    endloop
  endfacet
  facet normal 0 0.939693 0.34202
    outer loop
      vertex 7.83963 6.84387 199.281
      vertex -7.83963 -7.68284 239.193
      vertex 7.83963 -7.68284 239.193
    endloop
  endfacet
  facet normal 0 0.939693 0.34202
    outer loop
      vertex -7.83963 -7.68284 239.193
      vertex 7.83963 6.84387 199.281
      vertex -7.83963 6.84387 199.281
    endloop
  endfacet
  facet normal -0.951057 -0.290381 -0.10569
    outer loop
      vertex -68.5159 -109.72 212.263
      vertex -72.5437 -85.0036 180.598
      vertex -68.5159 -95.9046 174.304
    endloop
  endfacet
  facet normal -0.951056 -0.290381 -0.10569
    outer loop
      vertex -72.5437 -85.0036 180.598
      vertex -68.5159 -109.72 212.263
      vertex -72.8713 -97.9326 219.069
    endloop
  endfacet
  facet normal -0.994522 -0.0982246 -0.0357507
    outer loop
      vertex -73.5337 -81.3473 182.709
      vertex -74.8331 -83.1964 223.936
      vertex -74.7244 -70.5658 186.212
    endloop
  endfacet
  facet normal -0.994522 -0.0982259 -0.0357513
    outer loop
      vertex -73.3611 -96.5241 219.606
      vertex -73.5337 -81.3473 182.709
      vertex -73.3611 -82.7914 181.875
    endloop
  endfacet
  facet normal -0.994522 -0.0982245 -0.0357507
    outer loop
      vertex -73.5337 -81.3473 182.709
      vertex -73.3611 -96.5241 219.606
      vertex -74.8331 -83.1964 223.936
    endloop
  endfacet
  facet normal 0.951043 0.29042 0.105703
    outer loop
      vertex 69.018 -54.1257 233.382
      vertex 69.3837 -41.5823 195.63
      vertex 69.3394 -41.4428 195.644
    endloop
  endfacet
  facet normal 0.951057 0.290381 0.10569
    outer loop
      vertex 69.018 -54.1257 233.382
      vertex 73.3611 -53.2315 191.844
      vertex 69.3837 -41.5823 195.63
    endloop
  endfacet
  facet normal 0.951057 0.290381 0.10569
    outer loop
      vertex 73.3611 -53.2315 191.844
      vertex 69.018 -54.1257 233.382
      vertex 73.3611 -66.8457 229.249
    endloop
  endfacet
  facet normal 0.951057 0.290381 0.10569
    outer loop
      vertex 68.5159 -52.655 233.86
      vertex 69.3394 -41.4428 195.644
      vertex 68.5159 -38.845 195.917
    endloop
  endfacet
  facet normal 0.951056 0.290383 0.10569
    outer loop
      vertex 69.3394 -41.4428 195.644
      vertex 68.5159 -52.655 233.86
      vertex 69.018 -54.1257 233.382
    endloop
  endfacet
  facet normal -0.994522 -0.0982244 -0.0357508
    outer loop
      vertex -74.7244 -70.5658 186.212
      vertex -75 -81.6849 224.427
      vertex -75 -68.0708 187.023
    endloop
  endfacet
  facet normal -0.994522 -0.0982268 -0.0357515
    outer loop
      vertex -75 -81.6849 224.427
      vertex -74.7244 -70.5658 186.212
      vertex -74.8331 -83.1964 223.936
    endloop
  endfacet
  facet normal -0.951056 -0.290381 -0.10569
    outer loop
      vertex -72.8713 -97.9326 219.069
      vertex -73.3611 -82.7914 181.875
      vertex -72.5437 -85.0036 180.598
    endloop
  endfacet
  facet normal -0.951057 -0.29038 -0.10569
    outer loop
      vertex -73.3611 -82.7914 181.875
      vertex -72.8713 -97.9326 219.069
      vertex -73.3611 -96.5241 219.606
    endloop
  endfacet
  facet normal -0.951057 -0.290381 -0.105687
    outer loop
      vertex -73.3611 -96.5241 219.606
      vertex -72.8713 -97.9326 219.069
      vertex -72.988 -97.6168 219.251
    endloop
  endfacet
  facet normal 0.207911 0.919158 0.334546
    outer loop
      vertex 10.7734 6.15387 199.353
      vertex 23.1763 -11.0241 238.841
      vertex 23.1763 3.23677 199.66
    endloop
  endfacet
  facet normal 0.207912 0.919158 0.334546
    outer loop
      vertex 23.1763 -11.0241 238.841
      vertex 10.7734 6.15387 199.353
      vertex 9.69298 -8.08662 239.15
    endloop
  endfacet
  facet normal 0.207913 0.919158 0.334546
    outer loop
      vertex 7.83963 6.84387 199.281
      vertex 9.69298 -8.08662 239.15
      vertex 10.7734 6.15387 199.353
    endloop
  endfacet
  facet normal 0.207914 0.919158 0.334546
    outer loop
      vertex 9.69298 -8.08662 239.15
      vertex 7.83963 6.84387 199.281
      vertex 7.83963 -7.68284 239.193
    endloop
  endfacet
  facet normal 0.743145 0.628777 0.228856
    outer loop
      vertex 50.1848 -27.0068 237.161
      vertex 60.6763 -24.9274 197.38
      vertex 50.1848 -12.9845 198.635
    endloop
  endfacet
  facet normal 0.743145 0.628777 0.228856
    outer loop
      vertex 60.6763 -24.9274 197.38
      vertex 50.1848 -27.0068 237.161
      vertex 60.6763 -38.9497 235.906
    endloop
  endfacet
  facet normal -0.951057 0.290381 0.10569
    outer loop
      vertex -69.3394 -41.4428 195.644
      vertex -68.5159 -52.655 233.86
      vertex -68.5159 -38.845 195.917
    endloop
  endfacet
  facet normal -0.951056 0.290383 0.10569
    outer loop
      vertex -68.5159 -52.655 233.86
      vertex -69.3394 -41.4428 195.644
      vertex -69.018 -54.1257 233.382
    endloop
  endfacet
  facet normal 0.207908 -0.919159 -0.334546
    outer loop
      vertex 21.3475 -145.529 190.148
      vertex 23.1763 -130.543 150.111
      vertex 23.1763 -145.217 190.428
    endloop
  endfacet
  facet normal 0.207912 -0.919158 -0.334546
    outer loop
      vertex 23.1763 -130.543 150.111
      vertex 21.3475 -145.529 190.148
      vertex 20.2484 -131.042 149.662
    endloop
  endfacet
  facet normal -0.587785 0.760227 0.2767
    outer loop
      vertex -37.5 -3.53832 199.628
      vertex -48.7437 -25.9337 237.274
      vertex -37.5 -17.5607 238.154
    endloop
  endfacet
  facet normal -0.587785 0.760227 0.2767
    outer loop
      vertex -48.7437 -25.9337 237.274
      vertex -37.5 -3.53832 199.628
      vertex -47.8736 -11.2633 198.816
    endloop
  endfacet
  facet normal 0.951056 -0.290381 -0.10569
    outer loop
      vertex 68.5159 -109.72 212.263
      vertex 72.5437 -85.0036 180.598
      vertex 72.8713 -97.9326 219.069
    endloop
  endfacet
  facet normal 0.951057 -0.290381 -0.10569
    outer loop
      vertex 72.5437 -85.0036 180.598
      vertex 68.5159 -109.72 212.263
      vertex 68.5159 -95.9046 174.304
    endloop
  endfacet
  facet normal 0.587785 0.760227 0.2767
    outer loop
      vertex 48.7437 -25.9337 237.274
      vertex 37.5 -3.53832 199.628
      vertex 37.5 -17.5607 238.154
    endloop
  endfacet
  facet normal 0.587785 0.760227 0.2767
    outer loop
      vertex 37.5 -3.53832 199.628
      vertex 48.7437 -25.9337 237.274
      vertex 47.8736 -11.2633 198.816
    endloop
  endfacet
  facet normal 0.587785 0.760227 0.2767
    outer loop
      vertex 50.1848 -27.0068 237.161
      vertex 47.8736 -11.2633 198.816
      vertex 48.7437 -25.9337 237.274
    endloop
  endfacet
  facet normal 0.587785 0.760227 0.2767
    outer loop
      vertex 47.8736 -11.2633 198.816
      vertex 50.1848 -27.0068 237.161
      vertex 50.1848 -12.9845 198.635
    endloop
  endfacet
  facet normal -0.207912 0.919158 0.334546
    outer loop
      vertex -10.7734 6.15387 199.353
      vertex -23.1763 -11.0241 238.841
      vertex -9.69298 -8.08662 239.15
    endloop
  endfacet
  facet normal -0.207911 0.919158 0.334546
    outer loop
      vertex -23.1763 -11.0241 238.841
      vertex -10.7734 6.15387 199.353
      vertex -23.1763 3.23677 199.66
    endloop
  endfacet
  facet normal 0 -0.939693 -0.34202
    outer loop
      vertex -7.83963 -133.156 147.758
      vertex 7.83963 -147.83 188.076
      vertex -7.83963 -147.83 188.076
    endloop
  endfacet
  facet normal 0 -0.939693 -0.34202
    outer loop
      vertex 7.83963 -147.83 188.076
      vertex -7.83963 -133.156 147.758
      vertex 7.83963 -133.156 147.758
    endloop
  endfacet
  facet normal -0.743145 -0.628777 -0.228856
    outer loop
      vertex -50.1848 -131.908 199.453
      vertex -60.6763 -107.845 167.41
      vertex -50.7326 -117.557 161.803
    endloop
  endfacet
  facet normal -0.743143 -0.628779 -0.228857
    outer loop
      vertex -50.1848 -131.908 199.453
      vertex -50.7326 -117.557 161.803
      vertex -50.1848 -118.045 161.364
    endloop
  endfacet
  facet normal -0.743145 -0.628777 -0.228856
    outer loop
      vertex -60.6763 -107.845 167.41
      vertex -50.1848 -131.908 199.453
      vertex -60.6763 -121.661 205.369
    endloop
  endfacet
  facet normal -0.866025 0.469846 0.17101
    outer loop
      vertex -68.5159 -38.845 195.917
      vertex -60.6763 -38.9497 235.906
      vertex -60.6763 -24.9274 197.38
    endloop
  endfacet
  facet normal -0.866025 0.469847 0.17101
    outer loop
      vertex -68.5159 -38.845 195.917
      vertex -66.8437 -49.8988 234.755
      vertex -60.6763 -38.9497 235.906
    endloop
  endfacet
  facet normal -0.866026 0.469846 0.17101
    outer loop
      vertex -66.8437 -49.8988 234.755
      vertex -68.5159 -38.845 195.917
      vertex -68.5159 -52.655 233.86
    endloop
  endfacet
  facet normal -0.406737 0.858452 0.312451
    outer loop
      vertex -34.8383 -2.32365 199.756
      vertex -37.5 -17.5607 238.154
      vertex -35.8196 -16.7939 238.235
    endloop
  endfacet
  facet normal -0.406736 0.858452 0.312451
    outer loop
      vertex -37.5 -17.5607 238.154
      vertex -34.8383 -2.32365 199.756
      vertex -37.5 -3.53832 199.628
    endloop
  endfacet
  facet normal 0.866025 0.469846 0.17101
    outer loop
      vertex 60.6763 -38.9497 235.906
      vertex 68.5159 -38.845 195.917
      vertex 60.6763 -24.9274 197.38
    endloop
  endfacet
  facet normal 0.866025 0.469847 0.17101
    outer loop
      vertex 66.8437 -49.8988 234.755
      vertex 68.5159 -38.845 195.917
      vertex 60.6763 -38.9497 235.906
    endloop
  endfacet
  facet normal 0.866026 0.469846 0.17101
    outer loop
      vertex 68.5159 -38.845 195.917
      vertex 66.8437 -49.8988 234.755
      vertex 68.5159 -52.655 233.86
    endloop
  endfacet
  facet normal 0.406737 0.858452 0.312451
    outer loop
      vertex 37.5 -17.5607 238.154
      vertex 34.8383 -2.32365 199.756
      vertex 35.8196 -16.7939 238.235
    endloop
  endfacet
  facet normal 0.406736 0.858452 0.312451
    outer loop
      vertex 34.8383 -2.32365 199.756
      vertex 37.5 -17.5607 238.154
      vertex 37.5 -3.53832 199.628
    endloop
  endfacet
  facet normal 0.406737 0.858452 0.312451
    outer loop
      vertex 35.8196 -16.7939 238.235
      vertex 34.8383 -2.32365 199.756
      vertex 29.7464 0 200
    endloop
  endfacet
  facet normal 0.406736 0.858452 0.312451
    outer loop
      vertex 29.7464 0 200
      vertex 23.1763 -11.0241 238.841
      vertex 35.8196 -16.7939 238.235
    endloop
  endfacet
  facet normal 0.406737 0.858452 0.312451
    outer loop
      vertex 23.1763 -11.0241 238.841
      vertex 29.7464 0 200
      vertex 23.1763 3.23677 199.66
    endloop
  endfacet
  facet normal -0.406736 0.858452 0.312451
    outer loop
      vertex -23.1763 -11.0241 238.841
      vertex -29.7464 0 200
      vertex -35.8196 -16.7939 238.235
    endloop
  endfacet
  facet normal -0.406737 0.858452 0.312451
    outer loop
      vertex -29.7464 0 200
      vertex -23.1763 -11.0241 238.841
      vertex -23.1763 3.23677 199.66
    endloop
  endfacet
  facet normal -0.406737 0.858452 0.312451
    outer loop
      vertex -35.8196 -16.7939 238.235
      vertex -29.7464 0 200
      vertex -34.8383 -2.32365 199.756
    endloop
  endfacet
  facet normal -0.207908 -0.919159 -0.334546
    outer loop
      vertex -23.1763 -130.543 150.111
      vertex -21.3475 -145.529 190.148
      vertex -23.1763 -145.217 190.428
    endloop
  endfacet
  facet normal -0.207912 -0.919158 -0.334546
    outer loop
      vertex -21.3475 -145.529 190.148
      vertex -23.1763 -130.543 150.111
      vertex -20.2484 -131.042 149.662
    endloop
  endfacet
  facet normal -0.587785 -0.760227 -0.2767
    outer loop
      vertex -50.1848 -118.045 161.364
      vertex -38.9566 -139.082 195.311
      vertex -50.1848 -131.908 199.453
    endloop
  endfacet
  facet normal -0.587785 -0.760227 -0.2767
    outer loop
      vertex -38.9566 -139.082 195.311
      vertex -50.1848 -118.045 161.364
      vertex -39.8473 -124.065 155.944
    endloop
  endfacet
  facet normal -0.866025 -0.469846 -0.17101
    outer loop
      vertex -60.6763 -121.661 205.369
      vertex -68.5159 -95.9046 174.304
      vertex -60.6763 -107.845 167.41
    endloop
  endfacet
  facet normal -0.866025 -0.469846 -0.17101
    outer loop
      vertex -68.5159 -95.9046 174.304
      vertex -60.6763 -121.661 205.369
      vertex -68.5159 -109.72 212.263
    endloop
  endfacet
  facet normal -0.743145 0.628777 0.228856
    outer loop
      vertex -60.6763 -24.9274 197.38
      vertex -50.1848 -27.0068 237.161
      vertex -50.1848 -12.9845 198.635
    endloop
  endfacet
  facet normal -0.743145 0.628777 0.228856
    outer loop
      vertex -50.1848 -27.0068 237.161
      vertex -60.6763 -24.9274 197.38
      vertex -60.6763 -38.9497 235.906
    endloop
  endfacet
  facet normal 0.951057 -0.29038 -0.10569
    outer loop
      vertex 72.8713 -97.9326 219.069
      vertex 73.3611 -82.7914 181.875
      vertex 73.3611 -96.5241 219.606
    endloop
  endfacet
  facet normal 0.951057 -0.290381 -0.105687
    outer loop
      vertex 72.8713 -97.9326 219.069
      vertex 73.3611 -96.5241 219.606
      vertex 72.988 -97.6168 219.251
    endloop
  endfacet
  facet normal 0.951056 -0.290381 -0.10569
    outer loop
      vertex 73.3611 -82.7914 181.875
      vertex 72.8713 -97.9326 219.069
      vertex 72.5437 -85.0036 180.598
    endloop
  endfacet
  facet normal 0.587785 -0.760227 -0.2767
    outer loop
      vertex 38.9566 -139.082 195.311
      vertex 50.1848 -118.045 161.364
      vertex 50.1848 -131.908 199.453
    endloop
  endfacet
  facet normal 0.587785 -0.760227 -0.2767
    outer loop
      vertex 50.1848 -118.045 161.364
      vertex 38.9566 -139.082 195.311
      vertex 39.8473 -124.065 155.944
    endloop
  endfacet
  facet normal 0.743145 -0.628777 -0.228856
    outer loop
      vertex 50.1848 -131.908 199.453
      vertex 60.6763 -107.845 167.41
      vertex 60.6763 -121.661 205.369
    endloop
  endfacet
  facet normal 0.743145 -0.628777 -0.228856
    outer loop
      vertex 60.6763 -107.845 167.41
      vertex 50.1848 -131.908 199.453
      vertex 50.7326 -117.557 161.803
    endloop
  endfacet
  facet normal 0.743143 -0.628779 -0.228857
    outer loop
      vertex 50.7326 -117.557 161.803
      vertex 50.1848 -131.908 199.453
      vertex 50.1848 -118.045 161.364
    endloop
  endfacet
  facet normal 0.40674 -0.858451 -0.31245
    outer loop
      vertex 23.1763 -145.217 190.428
      vertex 25.8931 -129.573 150.984
      vertex 24.8732 -144.612 190.974
    endloop
  endfacet
  facet normal 0.406739 -0.858451 -0.312451
    outer loop
      vertex 25.8931 -129.573 150.984
      vertex 23.1763 -145.217 190.428
      vertex 23.1763 -130.543 150.111
    endloop
  endfacet
  facet normal 0.207912 -0.919158 -0.334546
    outer loop
      vertex 7.83963 -147.83 188.076
      vertex 20.2484 -131.042 149.662
      vertex 21.3475 -145.529 190.148
    endloop
  endfacet
  facet normal 0.207912 -0.919158 -0.334546
    outer loop
      vertex 20.2484 -131.042 149.662
      vertex 7.83963 -147.83 188.076
      vertex 7.83963 -133.156 147.758
    endloop
  endfacet
  facet normal -0.207912 -0.919158 -0.334546
    outer loop
      vertex -20.2484 -131.042 149.662
      vertex -7.83963 -147.83 188.076
      vertex -21.3475 -145.529 190.148
    endloop
  endfacet
  facet normal -0.207912 -0.919158 -0.334546
    outer loop
      vertex -7.83963 -147.83 188.076
      vertex -20.2484 -131.042 149.662
      vertex -7.83963 -133.156 147.758
    endloop
  endfacet
  facet normal -0.40674 -0.858451 -0.31245
    outer loop
      vertex -25.8931 -129.573 150.984
      vertex -23.1763 -145.217 190.428
      vertex -24.8732 -144.612 190.974
    endloop
  endfacet
  facet normal -0.406739 -0.858451 -0.312451
    outer loop
      vertex -23.1763 -145.217 190.428
      vertex -25.8931 -129.573 150.984
      vertex -23.1763 -130.543 150.111
    endloop
  endfacet
  facet normal -0.587785 0.760227 0.2767
    outer loop
      vertex -47.8736 -11.2633 198.816
      vertex -50.1848 -27.0068 237.161
      vertex -48.7437 -25.9337 237.274
    endloop
  endfacet
  facet normal -0.587785 0.760227 0.2767
    outer loop
      vertex -50.1848 -27.0068 237.161
      vertex -47.8736 -11.2633 198.816
      vertex -50.1848 -12.9845 198.635
    endloop
  endfacet
  facet normal -0.994522 0.0982246 0.0357509
    outer loop
      vertex -75 -68.0708 187.023
      vertex -73.5295 -68.3706 228.754
      vertex -73.6381 -55.74 191.029
    endloop
  endfacet
  facet normal -0.994522 0.0982249 0.0357509
    outer loop
      vertex -73.5295 -68.3706 228.754
      vertex -75 -68.0708 187.023
      vertex -75 -81.6849 224.427
    endloop
  endfacet
  facet normal 0.994522 -0.0982244 -0.0357508
    outer loop
      vertex 75 -81.6849 224.427
      vertex 74.7244 -70.5658 186.212
      vertex 75 -68.0708 187.023
    endloop
  endfacet
  facet normal 0.994522 -0.0982268 -0.0357515
    outer loop
      vertex 74.7244 -70.5658 186.212
      vertex 75 -81.6849 224.427
      vertex 74.8331 -83.1964 223.936
    endloop
  endfacet
  facet normal 0.994522 -0.0982246 -0.0357507
    outer loop
      vertex 74.8331 -83.1964 223.936
      vertex 73.5337 -81.3473 182.709
      vertex 74.7244 -70.5658 186.212
    endloop
  endfacet
  facet normal 0.994522 -0.0982245 -0.0357507
    outer loop
      vertex 73.3611 -96.5241 219.606
      vertex 73.5337 -81.3473 182.709
      vertex 74.8331 -83.1964 223.936
    endloop
  endfacet
  facet normal 0.994522 -0.0982259 -0.0357513
    outer loop
      vertex 73.5337 -81.3473 182.709
      vertex 73.3611 -96.5241 219.606
      vertex 73.3611 -82.7914 181.875
    endloop
  endfacet
  facet normal 0.406736 -0.858452 -0.312451
    outer loop
      vertex 37.5 -125.431 154.713
      vertex 34.8024 -141.068 194.164
      vertex 24.8732 -144.612 190.974
    endloop
  endfacet
  facet normal 0.406737 -0.858452 -0.312451
    outer loop
      vertex 34.8024 -141.068 194.164
      vertex 37.5 -125.431 154.713
      vertex 37.5 -140.012 194.774
    endloop
  endfacet
  facet normal 0.406736 -0.858452 -0.312451
    outer loop
      vertex 37.5 -125.431 154.713
      vertex 24.8732 -144.612 190.974
      vertex 25.8931 -129.573 150.984
    endloop
  endfacet
  facet normal 0.587788 -0.760225 -0.276699
    outer loop
      vertex 37.5 -140.012 194.774
      vertex 39.8473 -124.065 155.944
      vertex 38.9566 -139.082 195.311
    endloop
  endfacet
  facet normal 0.587784 -0.760228 -0.2767
    outer loop
      vertex 39.8473 -124.065 155.944
      vertex 37.5 -140.012 194.774
      vertex 37.5 -125.431 154.713
    endloop
  endfacet
  facet normal -0.587788 -0.760225 -0.276699
    outer loop
      vertex -39.8473 -124.065 155.944
      vertex -37.5 -140.012 194.774
      vertex -38.9566 -139.082 195.311
    endloop
  endfacet
  facet normal -0.587784 -0.760228 -0.2767
    outer loop
      vertex -37.5 -140.012 194.774
      vertex -39.8473 -124.065 155.944
      vertex -37.5 -125.431 154.713
    endloop
  endfacet
  facet normal -0.406737 -0.858452 -0.312451
    outer loop
      vertex -37.5 -125.431 154.713
      vertex -34.8024 -141.068 194.164
      vertex -37.5 -140.012 194.774
    endloop
  endfacet
  facet normal -0.406736 -0.858452 -0.312451
    outer loop
      vertex -34.8024 -141.068 194.164
      vertex -37.5 -125.431 154.713
      vertex -24.8732 -144.612 190.974
    endloop
  endfacet
  facet normal -0.406736 -0.858452 -0.312451
    outer loop
      vertex -24.8732 -144.612 190.974
      vertex -37.5 -125.431 154.713
      vertex -25.8931 -129.573 150.984
    endloop
  endfacet
  facet normal -0.994522 0.0982251 0.035751
    outer loop
      vertex -73.6381 -55.74 191.029
      vertex -73.3611 -66.8457 229.249
      vertex -73.3611 -53.2315 191.844
    endloop
  endfacet
  facet normal -0.994522 0.0982232 0.0357505
    outer loop
      vertex -73.3611 -66.8457 229.249
      vertex -73.6381 -55.74 191.029
      vertex -73.5295 -68.3706 228.754
    endloop
  endfacet
  facet normal -0.951043 0.29042 0.105703
    outer loop
      vertex -69.3837 -41.5823 195.63
      vertex -69.018 -54.1257 233.382
      vertex -69.3394 -41.4428 195.644
    endloop
  endfacet
  facet normal -0.951057 0.290381 0.10569
    outer loop
      vertex -73.3611 -53.2315 191.844
      vertex -69.018 -54.1257 233.382
      vertex -69.3837 -41.5823 195.63
    endloop
  endfacet
  facet normal -0.951057 0.290381 0.10569
    outer loop
      vertex -69.018 -54.1257 233.382
      vertex -73.3611 -53.2315 191.844
      vertex -73.3611 -66.8457 229.249
    endloop
  endfacet
  facet normal -1 0 0
    outer loop
      vertex -220 207.846 120
      vertex -220 220 112.5
      vertex -220 211.185 112.5
    endloop
  endfacet
  facet normal -1 0 0
    outer loop
      vertex -220 178.682 160.14
      vertex -220 220 112.5
      vertex -220 207.846 120
    endloop
  endfacet
  facet normal -1 0 0
    outer loop
      vertex -220 220 112.5
      vertex -220 178.682 160.14
      vertex -220 220 337.5
    endloop
  endfacet
  facet normal -1 0 0
    outer loop
      vertex -220 178.355 160.591
      vertex -220 220 337.5
      vertex -220 178.682 160.14
    endloop
  endfacet
  facet normal -1 0 0
    outer loop
      vertex -220 141.068 194.164
      vertex -220 220 337.5
      vertex -220 178.355 160.591
    endloop
  endfacet
  facet normal -1 0 0
    outer loop
      vertex -220 97.6168 219.251
      vertex -220 220 337.5
      vertex -220 141.068 194.164
    endloop
  endfacet
  facet normal -1 0 0
    outer loop
      vertex -220 49.8988 234.755
      vertex -220 220 337.5
      vertex -220 97.6168 219.251
    endloop
  endfacet
  facet normal -1 0 0
    outer loop
      vertex -220 0 240
      vertex -220 220 337.5
      vertex -220 49.8988 234.755
    endloop
  endfacet
  facet normal -1 0 0
    outer loop
      vertex -220 -220 337.5
      vertex -220 0 240
      vertex -220 -49.8988 234.755
    endloop
  endfacet
  facet normal -1 0 0
    outer loop
      vertex -220 -220 337.5
      vertex -220 -49.8988 234.755
      vertex -220 -97.6168 219.251
    endloop
  endfacet
  facet normal -1 0 0
    outer loop
      vertex -220 -220 112.5
      vertex -220 -207.846 120
      vertex -220 -211.185 112.5
    endloop
  endfacet
  facet normal -1 0 0
    outer loop
      vertex -220 -220 112.5
      vertex -220 -178.355 160.591
      vertex -220 -207.846 120
    endloop
  endfacet
  facet normal -1 0 0
    outer loop
      vertex -220 0 240
      vertex -220 -220 337.5
      vertex -220 220 337.5
    endloop
  endfacet
  facet normal -1 0 0
    outer loop
      vertex -220 -141.068 194.164
      vertex -220 -220 337.5
      vertex -220 -97.6168 219.251
    endloop
  endfacet
  facet normal -1 0 0
    outer loop
      vertex -220 -178.355 160.591
      vertex -220 -220 337.5
      vertex -220 -141.068 194.164
    endloop
  endfacet
  facet normal -1 0 0
    outer loop
      vertex -220 -220 337.5
      vertex -220 -178.355 160.591
      vertex -220 -220 112.5
    endloop
  endfacet
  facet normal -0 0 1
    outer loop
      vertex -220 220 337.5
      vertex 220 -220 337.5
      vertex 220 220 337.5
    endloop
  endfacet
  facet normal 0 0 1
    outer loop
      vertex 220 -220 337.5
      vertex -220 220 337.5
      vertex -220 -220 337.5
    endloop
  endfacet
  facet normal 1 -0 0
    outer loop
      vertex 220 178.355 160.591
      vertex 220 220 112.5
      vertex 220 220 337.5
    endloop
  endfacet
  facet normal 1 0 0
    outer loop
      vertex 220 220 112.5
      vertex 220 208.073 119.491
      vertex 220 211.185 112.5
    endloop
  endfacet
  facet normal 1 0 0
    outer loop
      vertex 220 220 112.5
      vertex 220 207.846 120
      vertex 220 208.073 119.491
    endloop
  endfacet
  facet normal 1 0 0
    outer loop
      vertex 220 220 112.5
      vertex 220 207.518 120.451
      vertex 220 207.846 120
    endloop
  endfacet
  facet normal 1 0 0
    outer loop
      vertex 220 220 112.5
      vertex 220 178.355 160.591
      vertex 220 207.518 120.451
    endloop
  endfacet
  facet normal 1 0 0
    outer loop
      vertex 220 220 337.5
      vertex 220 141.068 194.164
      vertex 220 178.355 160.591
    endloop
  endfacet
  facet normal 1 0 0
    outer loop
      vertex 220 220 337.5
      vertex 220 97.6168 219.251
      vertex 220 141.068 194.164
    endloop
  endfacet
  facet normal 1 0 0
    outer loop
      vertex 220 220 337.5
      vertex 220 49.8988 234.755
      vertex 220 97.6168 219.251
    endloop
  endfacet
  facet normal 1 0 0
    outer loop
      vertex 220 220 337.5
      vertex 220 0 240
      vertex 220 49.8988 234.755
    endloop
  endfacet
  facet normal 1 -0 0
    outer loop
      vertex 220 -220 337.5
      vertex 220 0 240
      vertex 220 220 337.5
    endloop
  endfacet
  facet normal 1 0 0
    outer loop
      vertex 220 0 240
      vertex 220 -220 337.5
      vertex 220 -49.8988 234.755
    endloop
  endfacet
  facet normal 1 0 0
    outer loop
      vertex 220 -49.8988 234.755
      vertex 220 -220 337.5
      vertex 220 -97.6168 219.251
    endloop
  endfacet
  facet normal 1 0 0
    outer loop
      vertex 220 -220 337.5
      vertex 220 -141.068 194.164
      vertex 220 -97.6168 219.251
    endloop
  endfacet
  facet normal 1 0 0
    outer loop
      vertex 220 -220 337.5
      vertex 220 -178.355 160.591
      vertex 220 -141.068 194.164
    endloop
  endfacet
  facet normal 1 0 0
    outer loop
      vertex 220 -220 112.5
      vertex 220 -178.355 160.591
      vertex 220 -220 337.5
    endloop
  endfacet
  facet normal 1 0 0
    outer loop
      vertex 220 -178.355 160.591
      vertex 220 -220 112.5
      vertex 220 -207.846 120
    endloop
  endfacet
  facet normal 1 0 0
    outer loop
      vertex 220 -207.846 120
      vertex 220 -220 112.5
      vertex 220 -211.185 112.5
    endloop
  endfacet
  facet normal 0 0 -1
    outer loop
      vertex 151.368 211.185 112.5
      vertex 220 220 112.5
      vertex 220 211.185 112.5
    endloop
  endfacet
  facet normal 0 0 -1
    outer loop
      vertex -220 220 112.5
      vertex 151.368 211.185 112.5
      vertex -220 211.185 112.5
    endloop
  endfacet
  facet normal 0 0 -1
    outer loop
      vertex 151.368 211.185 112.5
      vertex -220 220 112.5
      vertex 220 220 112.5
    endloop
  endfacet
  facet normal 0 0 -1
    outer loop
      vertex -220 -220 112.5
      vertex 220 -211.185 112.5
      vertex 220 -220 112.5
    endloop
  endfacet
  facet normal -0 0 -1
    outer loop
      vertex 220 -211.185 112.5
      vertex -220 -220 112.5
      vertex -220 -211.185 112.5
    endloop
  endfacet
  facet normal 0 -1 0
    outer loop
      vertex -220 -220 112.5
      vertex 220 -220 337.5
      vertex -220 -220 337.5
    endloop
  endfacet
  facet normal 0 -1 -0
    outer loop
      vertex 220 -220 337.5
      vertex -220 -220 112.5
      vertex 220 -220 112.5
    endloop
  endfacet
  facet normal 0 1 -0
    outer loop
      vertex 220 220 112.5
      vertex -220 220 337.5
      vertex 220 220 337.5
    endloop
  endfacet
  facet normal 0 1 0
    outer loop
      vertex -220 220 337.5
      vertex 220 220 112.5
      vertex -220 220 112.5
    endloop
  endfacet
  facet normal -7.49522e-006 0.309016 -0.951057
    outer loop
      vertex 74.7244 -70.5658 186.212
      vertex 73.6381 -55.74 191.029
      vertex 75 -68.0708 187.023
    endloop
  endfacet
  facet normal 6.24459e-007 0.309017 -0.951057
    outer loop
      vertex 73.5337 -81.3473 182.709
      vertex 73.6381 -55.74 191.029
      vertex 74.7244 -70.5658 186.212
    endloop
  endfacet
  facet normal 8.49739e-007 0.309017 -0.951057
    outer loop
      vertex 69.3837 -41.5823 195.63
      vertex 73.6381 -55.74 191.029
      vertex 73.5337 -81.3473 182.709
    endloop
  endfacet
  facet normal 1.1657e-005 0.30902 -0.951056
    outer loop
      vertex 73.6381 -55.74 191.029
      vertex 69.3837 -41.5823 195.63
      vertex 73.3611 -53.2315 191.844
    endloop
  endfacet
  facet normal 0 0.309017 -0.951057
    outer loop
      vertex 73.5337 -81.3473 182.709
      vertex -69.3837 -41.5823 195.63
      vertex 69.3837 -41.5823 195.63
    endloop
  endfacet
  facet normal 0 0.309017 -0.951057
    outer loop
      vertex -73.5337 -81.3473 182.709
      vertex -69.3837 -41.5823 195.63
      vertex 73.5337 -81.3473 182.709
    endloop
  endfacet
  facet normal -8.49739e-007 0.309017 -0.951057
    outer loop
      vertex -69.3837 -41.5823 195.63
      vertex -73.5337 -81.3473 182.709
      vertex -73.6381 -55.74 191.029
    endloop
  endfacet
  facet normal -1.1657e-005 0.30902 -0.951056
    outer loop
      vertex -69.3837 -41.5823 195.63
      vertex -73.6381 -55.74 191.029
      vertex -73.3611 -53.2315 191.844
    endloop
  endfacet
  facet normal -6.24459e-007 0.309017 -0.951057
    outer loop
      vertex -74.7244 -70.5658 186.212
      vertex -73.6381 -55.74 191.029
      vertex -73.5337 -81.3473 182.709
    endloop
  endfacet
  facet normal 7.49522e-006 0.309016 -0.951057
    outer loop
      vertex -73.6381 -55.74 191.029
      vertex -74.7244 -70.5658 186.212
      vertex -75 -68.0708 187.023
    endloop
  endfacet
  facet normal 1.99381e-006 -0.104524 -0.994522
    outer loop
      vertex 29.7464 0 200
      vertex 10.7734 6.15387 199.353
      vertex 23.1763 3.23677 199.66
    endloop
  endfacet
  facet normal 0 -0.10453 -0.994522
    outer loop
      vertex -10.7734 6.15387 199.353
      vertex 10.7734 6.15387 199.353
      vertex 29.7464 0 200
    endloop
  endfacet
  facet normal -0 -0.104511 -0.994524
    outer loop
      vertex 10.7734 6.15387 199.353
      vertex -10.7734 6.15387 199.353
      vertex 7.83963 6.84387 199.281
    endloop
  endfacet
  facet normal -0 -0.104511 -0.994524
    outer loop
      vertex 7.83963 6.84387 199.281
      vertex -10.7734 6.15387 199.353
      vertex -7.83963 6.84387 199.281
    endloop
  endfacet
  facet normal 0 -0.10453 -0.994522
    outer loop
      vertex -29.7464 0 200
      vertex -10.7734 6.15387 199.353
      vertex 29.7464 0 200
    endloop
  endfacet
  facet normal -1.99381e-006 -0.104524 -0.994522
    outer loop
      vertex -10.7734 6.15387 199.353
      vertex -29.7464 0 200
      vertex -23.1763 3.23677 199.66
    endloop
  endfacet
  facet normal -1.19562e-005 0.500002 -0.866024
    outer loop
      vertex 72.5437 -85.0036 180.598
      vertex 73.5337 -81.3473 182.709
      vertex 73.3611 -82.7914 181.875
    endloop
  endfacet
  facet normal 1.52243e-007 0.5 -0.866025
    outer loop
      vertex 60.6763 -107.845 167.41
      vertex 72.5437 -85.0036 180.598
      vertex 68.5159 -95.9046 174.304
    endloop
  endfacet
  facet normal -1.81365e-006 0.500001 -0.866025
    outer loop
      vertex 50.7326 -117.557 161.803
      vertex 72.5437 -85.0036 180.598
      vertex 60.6763 -107.845 167.41
    endloop
  endfacet
  facet normal 1.58322e-007 0.5 -0.866026
    outer loop
      vertex 72.5437 -85.0036 180.598
      vertex 50.7326 -117.557 161.803
      vertex 73.5337 -81.3473 182.709
    endloop
  endfacet
  facet normal 0 0.5 -0.866025
    outer loop
      vertex -50.7326 -117.557 161.803
      vertex 73.5337 -81.3473 182.709
      vertex 50.7326 -117.557 161.803
    endloop
  endfacet
  facet normal 1.81365e-006 0.500001 -0.866025
    outer loop
      vertex -72.5437 -85.0036 180.598
      vertex -50.7326 -117.557 161.803
      vertex -60.6763 -107.845 167.41
    endloop
  endfacet
  facet normal -1.52243e-007 0.5 -0.866025
    outer loop
      vertex -72.5437 -85.0036 180.598
      vertex -60.6763 -107.845 167.41
      vertex -68.5159 -95.9046 174.304
    endloop
  endfacet
  facet normal -1.58322e-007 0.5 -0.866026
    outer loop
      vertex -50.7326 -117.557 161.803
      vertex -72.5437 -85.0036 180.598
      vertex -73.5337 -81.3473 182.709
    endloop
  endfacet
  facet normal 1.19562e-005 0.500002 -0.866024
    outer loop
      vertex -73.5337 -81.3473 182.709
      vertex -72.5437 -85.0036 180.598
      vertex -73.3611 -82.7914 181.875
    endloop
  endfacet
  facet normal 0 0.5 -0.866025
    outer loop
      vertex -50.7326 -117.557 161.803
      vertex -73.5337 -81.3473 182.709
      vertex 73.5337 -81.3473 182.709
    endloop
  endfacet
  facet normal -2.09442e-006 0.104528 -0.994522
    outer loop
      vertex 69.3394 -41.4428 195.644
      vertex 60.6763 -24.9274 197.38
      vertex 68.5159 -38.845 195.917
    endloop
  endfacet
  facet normal 6.96634e-005 0.104565 -0.994518
    outer loop
      vertex 69.3837 -41.5823 195.63
      vertex 60.6763 -24.9274 197.38
      vertex 69.3394 -41.4428 195.644
    endloop
  endfacet
  facet normal 1.89978e-006 0.10453 -0.994522
    outer loop
      vertex 47.8736 -11.2633 198.816
      vertex 60.6763 -24.9274 197.38
      vertex 69.3837 -41.5823 195.63
    endloop
  endfacet
  facet normal 4.24656e-006 0.104532 -0.994522
    outer loop
      vertex 60.6763 -24.9274 197.38
      vertex 47.8736 -11.2633 198.816
      vertex 50.1848 -12.9845 198.635
    endloop
  endfacet
  facet normal 5.54016e-007 0.104529 -0.994522
    outer loop
      vertex 29.7464 0 200
      vertex 47.8736 -11.2633 198.816
      vertex 69.3837 -41.5823 195.63
    endloop
  endfacet
  facet normal 1.17806e-005 0.104544 -0.99452
    outer loop
      vertex 47.8736 -11.2633 198.816
      vertex 34.8383 -2.32365 199.756
      vertex 37.5 -3.53832 199.628
    endloop
  endfacet
  facet normal -5.77424e-006 0.104519 -0.994523
    outer loop
      vertex 47.8736 -11.2633 198.816
      vertex 29.7464 0 200
      vertex 34.8383 -2.32365 199.756
    endloop
  endfacet
  facet normal 0 0.104529 -0.994522
    outer loop
      vertex 69.3837 -41.5823 195.63
      vertex -29.7464 0 200
      vertex 29.7464 0 200
    endloop
  endfacet
  facet normal -9.10341e-008 0.104528 -0.994522
    outer loop
      vertex -47.8736 -11.2633 198.816
      vertex -29.7464 0 200
      vertex 69.3837 -41.5823 195.63
    endloop
  endfacet
  facet normal 5.77424e-006 0.104519 -0.994523
    outer loop
      vertex -29.7464 0 200
      vertex -47.8736 -11.2633 198.816
      vertex -34.8383 -2.32365 199.756
    endloop
  endfacet
  facet normal -1.17806e-005 0.104544 -0.99452
    outer loop
      vertex -34.8383 -2.32365 199.756
      vertex -47.8736 -11.2633 198.816
      vertex -37.5 -3.53832 199.628
    endloop
  endfacet
  facet normal 0 0.104529 -0.994522
    outer loop
      vertex -69.3837 -41.5823 195.63
      vertex -47.8736 -11.2633 198.816
      vertex 69.3837 -41.5823 195.63
    endloop
  endfacet
  facet normal -4.24656e-006 0.104532 -0.994522
    outer loop
      vertex -47.8736 -11.2633 198.816
      vertex -60.6763 -24.9274 197.38
      vertex -50.1848 -12.9845 198.635
    endloop
  endfacet
  facet normal -1.89978e-006 0.10453 -0.994522
    outer loop
      vertex -47.8736 -11.2633 198.816
      vertex -69.3837 -41.5823 195.63
      vertex -60.6763 -24.9274 197.38
    endloop
  endfacet
  facet normal 2.09442e-006 0.104528 -0.994522
    outer loop
      vertex -60.6763 -24.9274 197.38
      vertex -69.3394 -41.4428 195.644
      vertex -68.5159 -38.845 195.917
    endloop
  endfacet
  facet normal -6.96634e-005 0.104565 -0.994518
    outer loop
      vertex -60.6763 -24.9274 197.38
      vertex -69.3837 -41.5823 195.63
      vertex -69.3394 -41.4428 195.644
    endloop
  endfacet
  facet normal -3.16547e-005 0.66916 -0.743118
    outer loop
      vertex 39.8473 -124.065 155.944
      vertex 50.7326 -117.557 161.803
      vertex 50.1848 -118.045 161.364
    endloop
  endfacet
  facet normal -7.2372e-006 0.669141 -0.743135
    outer loop
      vertex 25.8931 -129.573 150.984
      vertex 39.8473 -124.065 155.944
      vertex 37.5 -125.431 154.713
    endloop
  endfacet
  facet normal -1.78711e-007 0.669131 -0.743144
    outer loop
      vertex 39.8473 -124.065 155.944
      vertex 25.8931 -129.573 150.984
      vertex 50.7326 -117.557 161.803
    endloop
  endfacet
  facet normal 8.81377e-006 0.669112 -0.743162
    outer loop
      vertex 20.2484 -131.042 149.662
      vertex 25.8931 -129.573 150.984
      vertex 23.1763 -130.543 150.111
    endloop
  endfacet
  facet normal -4.02186e-007 0.669132 -0.743144
    outer loop
      vertex 25.8931 -129.573 150.984
      vertex 20.2484 -131.042 149.662
      vertex 50.7326 -117.557 161.803
    endloop
  endfacet
  facet normal 0 0.669129 -0.743146
    outer loop
      vertex -7.83963 -133.156 147.758
      vertex 20.2484 -131.042 149.662
      vertex 7.83963 -133.156 147.758
    endloop
  endfacet
  facet normal 0 0.669129 -0.743146
    outer loop
      vertex -20.2484 -131.042 149.662
      vertex 20.2484 -131.042 149.662
      vertex -7.83963 -133.156 147.758
    endloop
  endfacet
  facet normal 0 0.669131 -0.743144
    outer loop
      vertex 20.2484 -131.042 149.662
      vertex -20.2484 -131.042 149.662
      vertex 50.7326 -117.557 161.803
    endloop
  endfacet
  facet normal -8.81377e-006 0.669112 -0.743162
    outer loop
      vertex -25.8931 -129.573 150.984
      vertex -20.2484 -131.042 149.662
      vertex -23.1763 -130.543 150.111
    endloop
  endfacet
  facet normal 6.99288e-008 0.669131 -0.743145
    outer loop
      vertex -20.2484 -131.042 149.662
      vertex -25.8931 -129.573 150.984
      vertex 50.7326 -117.557 161.803
    endloop
  endfacet
  facet normal 7.2372e-006 0.669141 -0.743135
    outer loop
      vertex -39.8473 -124.065 155.944
      vertex -25.8931 -129.573 150.984
      vertex -37.5 -125.431 154.713
    endloop
  endfacet
  facet normal 9.34491e-009 0.669131 -0.743144
    outer loop
      vertex -25.8931 -129.573 150.984
      vertex -39.8473 -124.065 155.944
      vertex 50.7326 -117.557 161.803
    endloop
  endfacet
  facet normal 3.16547e-005 0.66916 -0.743118
    outer loop
      vertex -50.7326 -117.557 161.803
      vertex -39.8473 -124.065 155.944
      vertex -50.1848 -118.045 161.364
    endloop
  endfacet
  facet normal 0 0.669131 -0.743144
    outer loop
      vertex -39.8473 -124.065 155.944
      vertex -50.7326 -117.557 161.803
      vertex 50.7326 -117.557 161.803
    endloop
  endfacet
endsolid OpenSCAD_Model
